<?xml version="1.0"?>
<svg width="640" height="480" xmlns="http://www.w3.org/2000/svg" xmlns:svg="http://www.w3.org/2000/svg">
 <!-- Created with SVG-edit - https://github.com/SVG-Edit/svgedit-->
 <g class="layer" display="inline">
  <title>Layer 1</title>
  <path d="m187,196c-1.7,0.06 -2.48,0.61 -3.32,0.88c-0.83,0.26 -1.76,0.47 -2.48,0.84c-0.81,0.41 -1.16,1.05 -1.21,1.93c-0.04,0.79 -0.81,1.52 -1,2.35c-0.16,0.72 -1.31,0.6 -1.89,1.36c-0.59,0.77 -0.11,1.64 -0.11,2.62c0,0.82 -0.37,1.45 -0.88,2.24c-0.51,0.8 -0.09,1.6 -0.12,2.61c-0.03,0.86 -0.61,1.62 -0.95,2.47c-0.33,0.83 -0.52,1.5 -0.89,2.53c-0.26,0.74 -0.93,1.4 -1.46,1.87c-0.72,0.63 -0.54,1.65 -0.74,2.44c-0.22,0.86 -0.6,1.46 -0.98,2.34c-0.32,0.71 -0.97,1.17 -0.98,2.17c0,0.69 0,1.71 0,2.65c0,0.9 0,1.87 0,2.7c0,0.83 -0.18,1.72 0.04,2.6c0.22,0.87 0.86,1.56 0.94,2.4c0.1,0.97 -0.46,1.99 0.11,2.71c0.52,0.67 1.84,0 2.58,0.45c0.77,0.47 1.1,1.31 1.36,1.98c0.34,0.89 0.62,1.55 1,2.33c0.36,0.75 1.54,0.69 2.12,1.17c0.84,0.69 0.61,1.56 0.87,2.59c0.19,0.76 1.48,0.44 1.94,1.12c0.53,0.78 0.68,1.51 0.97,2.21c0.31,0.72 -0.05,2 0.65,2.35c0.71,0.34 1.77,0.11 2.46,0.66c0.61,0.49 0.92,1.23 1.34,2.08c0.37,0.74 1.16,1.35 1.87,1.71c0.69,0.35 1.53,0.98 2.11,1.58c0.59,0.61 1.3,0.99 2.13,1.06c0.81,0.06 1.2,1.04 1.85,1.66c0.59,0.56 1.44,0.39 2.31,0.55c1,0.19 1.7,0.32 2.86,0.78c0.65,0.26 1.49,0.91 2.26,1c0.89,0.1 1.83,-0.34 2.7,0.03c0.73,0.31 1.25,0.98 2.18,0.98c0.85,0 1.71,0 2.73,0c0.84,0 1.62,0.35 2.2,1.04c0.48,0.57 1.19,1.18 1.8,1.55c0.95,0.57 1.56,0.94 2.59,1.24c0.83,0.24 1.82,0.14 2.55,0.19c1.17,0.09 1.75,0.58 2.7,0.89c0.65,0.21 1.62,0.09 2.63,0.09c0.76,0 1.76,0 2.67,0.5c0.57,0.32 1.17,0.78 1.82,1.22c0.62,0.43 1.79,1.17 2.68,1.28c0.7,0.09 1.76,0.22 2.37,0.35c1.03,0.22 1.75,0.4 2.81,0.53c0.96,0.12 1.54,0.12 2.68,0.12c0.83,0 1.86,0.02 2.2,0.76c0.39,0.85 0.6,1.71 1.43,2.07c0.86,0.37 1.91,0.17 2.68,0.17c0.95,0 1.62,0.48 2.34,0.83c0.71,0.35 1.73,0.17 2.7,0.17c0.85,0 1.86,-0.01 2.52,0.01c0.75,0.02 1.57,0.05 2.9,0.21c0.46,0.05 1.37,0.2 2.25,0.35c0.79,0.14 1.99,0.38 2.93,0.42c0.84,0.04 1.76,-0.3 2.64,0.09c0.76,0.34 1.37,0.91 2.27,0.91c0.82,0 1.8,-0.09 2.51,0.07c1.03,0.24 1.57,0.84 2.3,1.22c1.08,0.56 1.79,0.61 2.49,0.66c1.03,0.07 1.96,0.04 2.75,0.04c1.02,0 1.89,0 2.89,0c0.67,0 1.86,0 2.66,0c0.86,0 1.7,0 2.68,0c0.82,0 1.69,0 2.56,0c0.73,0 1.57,0 2.76,0c0.89,0 1.46,0 2.53,0c0.92,0 1.68,0.03 2.76,0c0.89,-0.02 1.04,-0.84 1.58,-1.67c0.45,-0.7 1.16,-1.12 1.98,-1.25c0.95,-0.15 1.73,-0.08 3.02,-0.09c0.45,0 1.37,0 2.27,0c0.84,0 1.9,0 2.83,0c0.9,0 2.01,0.4 2.62,-0.36c0.53,-0.66 0.56,-1.48 1.21,-2.09c0.52,-0.48 1.21,-1.29 1.91,-1.44c0.76,-0.17 2.07,-0.09 2.74,-0.13c0.76,-0.04 1.7,-0.62 2.57,-0.87c0.83,-0.24 1.79,-0.12 2.68,-0.12c0.81,0 1.77,0 2.5,0c0.73,0 1.96,0.06 2.81,0c1.03,-0.08 1.69,-0.36 2.44,-0.57c1.1,-0.32 1.89,-0.11 2.73,-0.45c0.77,-0.31 1.38,-0.85 2.32,-1.04c1.05,-0.22 1.52,-0.51 2.2,-0.94c0.68,-0.43 1.68,-0.85 2.5,-0.98c0.81,-0.13 1.81,-0.32 2.73,-0.6c0.94,-0.28 1.73,-0.36 2.55,-0.45c1.06,-0.12 1.76,-0.36 2.68,-0.62c0.96,-0.27 1.78,-0.3 2.59,-0.41c1.04,-0.13 1.77,-0.29 2.47,-0.83c0.84,-0.66 1.08,-1.37 1.82,-1.95c0.62,-0.48 1.4,-0.76 2.52,-1.05c0.83,-0.21 1.53,-0.7 2.09,-1.42c0.54,-0.69 1.5,-0.68 2.16,-1.27c0.58,-0.52 0.86,-1.55 1.59,-2.07c0.73,-0.52 1.78,-0.66 2.47,-0.94c0.93,-0.36 1.67,-0.66 1.99,-1.59c0.23,-0.67 0.46,-1.38 0.86,-2.42c0.28,-0.73 1.15,-1.19 1.95,-1.41c0.87,-0.23 1.02,-1.17 1.02,-2c0,-0.98 0.17,-1.83 1,-2c0.83,-0.17 1.13,-1.03 1.65,-1.64c0.63,-0.73 1.23,-1.14 1.78,-1.88c0.58,-0.79 1.15,-1.18 1.96,-1.49c0.74,-0.28 0.96,-1.31 1.5,-1.87c0.74,-0.78 1.34,-1.23 1.87,-2.09c0.5,-0.81 1.48,-0.59 2.08,-1.19c0.6,-0.6 0.08,-1.6 0.18,-2.65c0.08,-0.86 0.69,-1.62 1.43,-2.06c0.62,-0.37 1.61,-0.55 2.13,-1.15c0.49,-0.56 0.34,-1.64 0.48,-2.32c0.23,-1.06 0.88,-1.75 0.94,-2.65c0.05,-0.76 0,-1.65 0,-2.52c0,-0.98 0,-1.97 0,-2.69c0,-0.99 0,-1.77 0,-2.77c0,-0.82 0,-1.72 0,-2.66c0,-0.85 0,-1.71 0,-2.61c0,-0.96 0,-1.86 0,-2.64c0,-0.94 0,-1.95 0,-2.7c0,-0.95 0,-1.74 0,-2.66c0,-0.74 0,-1.78 0,-2.75c0,-0.8 0,-1.64 0,-2.65c0,-0.69 0.12,-1.72 0,-2.65c-0.11,-0.82 -0.76,-1.43 -0.94,-2.35c-0.16,-0.85 0.06,-2.05 -0.7,-2.34c-0.78,-0.29 -1.62,-0.1 -2.4,-0.66c-0.65,-0.46 -0.97,-1.27 -1.31,-2c-0.38,-0.82 -1.16,-1.33 -2.13,-1.35c-0.86,-0.02 -1.78,0.18 -2.71,0c-0.76,-0.14 -1.46,-0.91 -2.09,-0.96c-0.94,-0.08 -1.91,0.12 -2.81,-0.04c-0.85,-0.14 -1.29,-0.87 -2.22,-1.22c-0.7,-0.26 -1.54,-0.93 -2.04,-1.59c-0.46,-0.6 -1.07,-1.33 -1.69,-1.83c-0.61,-0.5 -1.6,-0.34 -2.46,-0.35c-0.96,-0.01 -1.71,-0.49 -2.58,-0.88c-0.74,-0.33 -1.54,-0.51 -2.42,-0.84c-0.82,-0.31 -1.21,-1.07 -1.57,-1.72c-0.41,-0.73 -1.55,-0.54 -2.4,-0.57c-0.86,-0.03 -1.71,-0.44 -2.52,-0.83c-0.44,-0.22 0.38,-0.17 0,-0.17c-0.8,0 -1.64,0.05 -2.65,0c-0.79,-0.04 -1.35,-0.7 -1.35,-1.63c0,-0.85 -0.09,-1.63 -0.65,-2.41c-0.46,-0.65 -1.29,-1.17 -1.35,-2.05c-0.05,-0.78 0.33,-1.86 -0.17,-2.57c-0.48,-0.68 -1.59,-0.54 -2.26,-1.13c-0.72,-0.63 -1.42,-1.24 -1.56,-1.96c-0.18,-0.87 0.12,-1.88 -0.44,-2.59c-0.59,-0.75 -1.39,-1.19 -2.13,-1.56c-0.66,-0.33 -1.52,-0.68 -2.14,-1.19c-0.65,-0.55 -0.98,-1.51 -1.6,-2.13c-0.74,-0.74 -1.52,-0.71 -2.53,-0.76c-0.86,-0.04 -1.55,-0.5 -2.5,-1c-0.65,-0.34 -1.4,-0.62 -2.33,-0.83c-0.9,-0.21 -1.95,-0.13 -2.28,-0.87c-0.4,-0.9 -0.81,-1.29 -1.71,-1.29c-0.86,0 -1.83,0 -2.75,0c-0.9,0 -1.77,0 -2.6,0c-0.98,0 -1.75,0 -2.66,0c-0.94,0 -1.94,0 -2.69,0c-0.9,0 -1.82,0 -2.68,0c-0.98,0 -1.96,-0.31 -2.65,0.33c-0.65,0.61 -0.8,1.54 -1.53,1.95c-0.85,0.48 -1.56,0.67 -2.45,0.72c-0.79,0.04 -1.56,0.55 -2.23,1.22c-0.62,0.61 -0.88,1.39 -1.17,2.07c-0.35,0.82 -1.05,1.37 -1.95,1.71c-0.82,0.3 -1.61,0.74 -1.96,1.45c-0.39,0.78 0.12,1.74 -0.04,2.67c-0.14,0.84 -0.81,1.56 -1.54,1.87c-0.87,0.37 -2.02,-0.16 -2.42,0.56c-0.45,0.83 -0.13,1.73 -0.62,2.47c-0.45,0.67 -0.45,1.57 -1.13,2.04c-0.76,0.52 -1.01,1.32 -1.36,2.09c-0.35,0.78 -1.3,0.75 -2.31,0.87c-0.96,0.12 -1.62,0.57 -2.63,0.82c-0.78,0.19 -1.51,0.16 -2.48,0.17c-1,0.01 -1.45,0.77 -2.17,0.99c-0.96,0.3 -1.7,0.01 -2.72,0.01c-0.94,0 -1.84,0 -2.8,0c-0.66,0 -1.67,0 -2.57,0c-0.93,0 -1.6,0 -2.38,0c-0.82,0 -1.64,0 -3.03,0c-0.81,0 -1.54,0 -2.54,0c-0.8,0 -1.55,0 -2.65,0c-0.98,0 -1.84,0 -2.67,0c-0.98,0 -1.81,-0.17 -2,-1c-0.2,-0.88 -0.85,-1.45 -1.03,-2.19c-0.22,-0.94 -0.7,-1.57 -1.63,-1.76c-0.85,-0.17 -1.74,-0.15 -2.4,-0.7c-0.61,-0.51 -1.18,-1.16 -2.01,-1.3c-0.93,-0.15 -2.2,0.27 -2.77,-0.39c-0.45,-0.52 -0.54,-1.54 -1.14,-2.09c-0.58,-0.54 -1.52,-0.46 -2.37,-0.63c-0.92,-0.18 -1.47,-0.95 -1.71,-1.7c-0.28,-0.9 -0.73,-1.56 -0.91,-2.61c-0.14,-0.82 -0.36,-1.62 -1.06,-2.14c-0.66,-0.49 -1.56,-0.58 -1.92,-1.36c-0.42,-0.91 -0.81,-1.67 -1.03,-2.54c-0.22,-0.87 -0.68,-1.47 -0.98,-2.31c-0.27,-0.76 0.08,-1.98 -0.6,-2.27c-0.87,-0.37 -2.04,0.16 -2.44,-0.63c-0.39,-0.77 -0.74,-1.35 -1.32,-2.1c-0.44,-0.58 -0.38,-1.83 -1.15,-2.25c-0.77,-0.42 -1.73,-0.04 -2.67,-0.04c-0.77,0 -1.74,0.03 -2.57,-0.09c-1.01,-0.14 -1.79,-0.43 -2.54,-0.63c-0.95,-0.25 -1.87,-0.28 -2.65,-0.28c-0.94,0 -1.95,0 -2.74,0c-0.86,0 -1.63,0.12 -2.43,0.57c-0.78,0.45 -1.78,0.42 -2.54,0.43c-0.91,0.01 -1.67,0.45 -2.38,0.72c-0.99,0.37 -1.78,0.2 -2.89,0.28c-0.78,0.06 -0.84,0.98 -1.36,1.76c-0.49,0.72 -1.39,1 -2.07,1.3c-0.82,0.35 -1.47,1.01 -1.76,1.71c-0.36,0.87 -0.42,1.66 -0.92,2.59c-0.4,0.73 -1.05,1.3 -1.88,1.62c-0.88,0.34 -1.65,0.77 -2.03,1.47c-0.36,0.66 0.02,1.81 -0.12,2.66c-0.14,0.85 -0.97,1.26 -1,2.22c-0.02,0.68 0.25,1.92 -0.22,2.56c-0.52,0.7 -1.4,0.86 -2.07,1.17c-0.85,0.4 -1.01,1.42 -1.28,2.12c-0.36,0.93 -0.43,1.93 -0.43,2.83c0,0.76 0.01,1.65 0,2.52c-0.01,0.94 -0.77,1.42 -1,2.19c-0.27,0.93 0,1.84 0,2.55c0,0.98 0,1.93 0,2.85c0,0.79 0.15,1.76 -0.17,2.73c-0.23,0.69 -0.63,1.67 -1.4,2.08c-0.65,0.35 -1.64,0.59 -2.08,1.25c-0.52,0.78 -0.29,1.59 -0.35,2.69c-0.05,0.86 -0.91,1.3 -1,2.03c-0.11,0.92 -0.21,1.91 -0.89,2.2c-0.92,0.39 -1.63,0.63 -2.57,0.92l-0.53,0.61l-0.03,0.91" fill="none" id="svg_1" stroke="#000000" stroke-width="5"/>
  <polyline fill="none" id="svg_4" points="263,206 264.2213439941406,206.8788299560547" stroke="#000000" stroke-linecap="round" stroke-width="5"/>
  <path d="m278,204c-1.02,0.98 -1.98,1 -2.8,1l-0.92,0.09" fill="none" id="svg_5" stroke="#000000" stroke-width="5"/>
  <path d="m186,234c0.76,-2.05 1.64,-2.39 2.35,-2.65c1,-0.37 1.86,-0.35 2.62,-0.35c1.03,0 1.78,0 2.89,0c0.72,0 1.72,0.35 2.62,-0.02c0.74,-0.31 1.23,-0.95 2.04,-0.98c1.07,-0.04 1.91,-0.08 2.51,-0.58c0.58,-0.48 1.63,-0.42 2.32,-0.43c1.01,-0.01 1.4,-0.78 1.74,-1.43c0.42,-0.81 1.13,-1.51 2.08,-1.57c0.66,-0.04 1.67,0 2.53,0c0.9,0 1.83,0 2.63,0c0.85,0 1.79,0 2.78,0c0.77,0 1.66,0 2.58,0c0.65,0 1.82,0 2.62,0c1.01,0 1.87,0 2.71,0c0.98,0 1.8,0 2.67,0c0.87,0 1.83,0 2.56,0c0.95,0 1.97,0 2.87,0c0.79,0 1.73,0 2.42,0c1.07,0 1.98,0 2.89,0c0.91,0 1.8,0.08 2.53,-0.43c0.66,-0.46 1.51,-0.57 2.2,-0.66c0.85,-0.11 1.58,-0.27 2.42,-0.41c0.9,-0.15 2.27,-0.34 3.15,-0.41c0.42,-0.03 1.57,-0.08 2.23,-0.08c1.19,-0.01 2.06,0 2.94,0c0.94,0 1.63,0 2.7,0c0.81,0 1.72,0 2.73,0c0.68,0 1.66,0.08 2.48,0c0.93,-0.09 0.83,-1.25 1.49,-1.83c0.68,-0.59 1.71,-0.17 2.69,-0.17c0.82,0 1.48,-0.32 2.19,-0.83c0.6,-0.43 1.66,-0.17 2.67,-0.17c0.76,0 1.67,0 2.59,0c0.91,0 1.83,0 2.57,0c1.04,0 1.87,0 2.77,0c0.92,0 1.6,0 2.27,0c1.2,0 1.97,0 2.73,0c1.2,0 1.89,0 2.62,0c1.45,0 2.13,0 3.05,0c0.79,0 1.75,0 2.66,0c0.77,0 1.66,0 2.58,0c0.65,0 1.82,0 2.76,0c0.87,0 1.88,0 2.56,0c0.98,0 1.75,0 2.66,0c0.94,0 1.94,0 2.74,0c1,0 1.79,-0.08 2.54,0.43c0.68,0.46 1.55,0.57 2.41,0.57c0.9,0 1.74,0.45 2.15,1c0.58,0.77 1.39,0.9 2.31,1.01c0.96,0.11 1.47,0.95 2.29,0.99c0.9,0.05 1.66,-0.04 2.56,0c0.95,0.04 1.74,0.29 2.51,0.57c1.08,0.39 2,0.4 2.67,0.44c0.77,0.04 1.76,0.37 2.44,0.56c1.05,0.3 2.03,0.38 2.71,0.4c0.97,0.04 1.99,-0.1 2.82,0.14c0.78,0.22 1.44,0.76 2.19,1.18c1.02,0.57 1.8,0.7 2.71,0.71c0.82,0 1.79,0 2.51,0c0.99,0 1.81,0 2.96,0c0.79,0 1.61,0 2.67,0c0.7,0 1.51,0 2.54,0c0.95,0 1.96,0.12 2.46,-0.57c0.44,-0.62 0.78,-1.42 1.71,-1.43c1,-0.01 1.71,0 2.45,0c1.19,0 2.01,0 2.81,0c0.87,0 1.97,0 2.7,0c0.73,0 2.02,-0.14 2.42,0.57c0.43,0.77 0.74,1.41 1.57,1.72c0.88,0.33 1.75,0.66 2.46,1.07l0.49,0.61l0.97,0.04" fill="none" id="svg_6" stroke="#000000" stroke-width="5"/>
  <ellipse cx="218" cy="180" fill="none" id="svg_7" rx="15" ry="9" stroke="#000000" stroke-width="5" transform="matrix(1 0 0 1 0 0) rotate(33.2749 218 180)"/>
  <ellipse cx="315.49" cy="179" fill="none" id="svg_8" rx="15" ry="9" stroke="#000000" stroke-width="5" transform="matrix(1 0 0 1 0 0) rotate(-23.7131 315.495 179)"/>
  <ellipse cx="221.52" cy="181.85" fill="none" id="svg_12" rx="6.57" ry="2.5" stroke="#000000" stroke-width="5" transform="rotate(32.9959 221.515 181.848)"/>
  <ellipse cx="285.44" cy="189.39" fill="none" id="svg_13" rx="6.57" ry="2.5" stroke="#000000" stroke-width="5" transform="matrix(1 0 0 1 0 0) rotate(-59.1582 318.5 179.003) matrix(0.83871 0.544579 -0.544579 0.83871 182.233 -135.283)"/>
 </g>
</svg>