<svg xmlns="http://www.w3.org/2000/svg" xmlns:svg="http://www.w3.org/2000/svg" width="563px" height="459px" viewBox="75 116 406.8767252 331.8767252" version="1.1" id="svg5" xml:space="preserve" data-square-offset-x="83.2423326" data-square-offset-y="124.67348760000002"><defs id="defs2" style="fill: rgb(255, 255, 255);"/><g id="layer1" transform="translate(562.8767252, 0) scale(-1, 1)" style="fill: rgb(255, 255, 255);"><path style="fill: rgb(255, 255, 255); stroke-width: 0.999995;" d="m 168.16303259999995 437.9734875999984 c -1.1419,-0.566 -1.2845,-2.525 -0.3214,-4.413 1.6745,-3.282 4.008,-5.069 11.7961,-9.033 2.6998,-1.374 5.0711,-2.756 5.2695,-3.071 0.5649,-0.895 -0.6442,-1.93 -2.77,-2.372 -2.0077,-0.417 -3.7688,-0.222 -9.9359,1.095 -2.7854,0.595 -5.4221,0.794 -13.5016,1.019 -9.8629,0.277 -13.5031,0.699 -15.613,1.814 -0.4226,0.223 -1.5331,1.089 -2.4676,1.925 -2.5283,2.262 -4.6504,2.445 -6.6507,0.573 -1.3458,-1.26 -1.475,-2.395 -0.656,-5.766 1.4697,-6.045 1.844,-8.342 2.0318,-12.464 0.3089,-6.776 -0.9006,-12.161 -3.2635,-14.532 -1.0298,-1.033 -1.3429,-1.145 -3.2023,-1.14 -2.797,0.01 -5.532,0.702 -10.3397,2.629 -8.0585,3.228 -21.152,10.934 -25.6203,15.077 -2.8689,2.66 -5.5486,4.122 -7.5631,4.128 -3.2217,0.01 -2.7411,-3.277 1.3176,-9.006 1.9585,-2.765 2.7019,-3.307 11.0861,-8.088 10.7739,-6.145 16.6584,-10.231 21.768,-15.116 3.2411,-3.1 6.0415,-6.998 6.8929,-9.596 0.6573,-2.005 2.3103,-12.396 2.6522,-16.671 0.2029,-2.537 0.4583,-3.425 1.673,-5.813 0.7884,-1.55 1.7946,-3.927 2.2361,-5.284 2.8606,-8.789 8.8738,-21.772 13.4705,-29.085 3.2897,-5.233 5.1572,-7.851 9.8494,-13.81 4.1512,-5.272 6.8826,-9.122 7.3586,-10.375 0.4218,-1.109 1.9738,-12.549 2.6036,-19.191 0.6035,-6.364 0.6901,-5.925 -2.4052,-12.208 -1.0823,-2.197 -2.0762,-4.573 -2.2086,-5.279 -0.1325,-0.707 -0.07,-2.749 0.1401,-4.54 0.2639,-2.255 0.2694,-3.66 0.018,-4.57 -0.5205,-1.885 -4.3641,-5.536 -8.0399,-7.636 -13.6625,-7.805 -20.5513,-15.167 -25.5213,-27.274 -2.2273,-5.425 -3.8981,-7.935 -6.0086,-9.025 -1.2351,-0.639 -1.9245,-0.715 -5.5802,-0.621 -3.8935,0.1 -4.2956,0.05 -6.0453,-0.809 -5.0539,-2.473 -10.4577,-9.496 -11.3956,-14.812 -0.2089,-1.184 -0.524,-1.59 -1.9728,-2.538 -2.5578,-1.676 -3.1894,-2.886 -3.1894,-6.116 0,-2.44 0.1318,-2.938 1.5141,-5.728 1.9223,-3.88 6.0009,-8.26 11.5597,-12.414 3.1491,-2.354 4.2039,-3.372 5.2143,-5.035 2.2998,-3.786 4.6817,-5.329 8.2331,-5.333 2.8729,0 5.1598,-1.662 6.0613,-4.393 0.3561,-1.079 0.2953,-1.52 -0.4742,-3.444 -0.7688,-1.922 -0.8374,-2.418 -0.5317,-3.851 0.7919,-3.713 5.489,-8.158 10.2852,-9.733 10.8824,-3.572 22.5258,-0.04 29.3754,8.912 1.2395,1.62 2.0943,2.43 2.4915,2.363 0.3324,-0.06 2.0502,-0.196 3.8172,-0.31 6.7914,-0.436 13.2862,2.141 18.2637,7.25 1.5311,1.572 1.9249,1.794 3.1706,1.795 0.7823,0 4.1175,0.321 7.4114,0.711 15.5045,1.836 28.1376,4.651 41.394,9.227 18.3126,6.321 31.1497,10.526 36.677,12.014 9.8223,2.645 12.9812,3.196 30.7866,5.357 4.069,0.493 9.0627,1.269 11.0971,1.722 2.0345,0.455 5.6014,1.249 7.9266,1.765 11.4164,2.536 11.692,2.617 16.6031,4.901 2.6876,1.25 6.2322,2.609 7.877,3.02 3.3247,0.831 10.9113,1.972 15.5048,2.334 3.34,0.262 5.6216,1.091 7.2219,2.623 0.5813,0.557 1.6166,1.114 2.3007,1.24 0.6842,0.125 2.0317,0.652 2.9945,1.172 1.8597,1.002 3.2144,2.825 7.0349,9.463 2.9443,5.114 9.7173,15.058 20.5943,30.233 5.6939,7.944 11.6945,16.346 13.3347,18.671 6.206,8.798 9.9067,13.488 13.0634,16.558 3.7193,3.616 7.1814,8.731 10.8501,16.029 7.4918,14.903 8.6637,28.673 3.4071,40.033 -0.8101,1.752 -0.9594,2.559 -0.9816,5.306 -0.015,1.782 -0.1946,3.409 -0.4001,3.615 -0.2635,0.264 -2.2268,0.251 -6.6619,-0.05 -4.882,-0.325 -6.9431,-0.324 -9.2174,0.01 -5.8061,0.84 -15.5,4.911 -20.277,8.516 -2.4391,1.842 -5.0475,4.973 -6.4444,7.737 -0.665,1.318 -1.8731,4.797 -2.876,8.285 -0.4014,1.396 0.536,0 2.3636,-3.523 3.001,-5.782 4.8927,-8.029 8.8863,-10.552 5.5365,-3.497 17.5137,-7.239 23.1728,-7.239 0.93,0 4.1195,0.311 7.0878,0.691 2.9682,0.378 8.1912,0.857 11.6064,1.064 3.4153,0.206 7.1321,0.615 8.2594,0.909 4.3112,1.123 7.9752,4.081 10.9342,8.829 2.9145,4.676 5.0648,12.324 5.0684,18.027 0,4.472 -2.1024,11.621 -4.2389,14.392 -0.5757,0.747 -2.2076,3.101 -3.6266,5.232 -3.6078,5.42 -6.3021,8.658 -10.7417,12.913 -7.6786,7.357 -16.0093,11.89 -25.8875,14.083 -2.7166,0.603 -5.1712,0.765 -15.217,1.002 -9.9626,0.234 -12.6594,0.41 -16.0292,1.045 -11.0082,2.072 -20.4211,5.299 -27.3338,9.367 -3.8896,2.289 -6.2575,4.136 -10.3612,8.079 -3.5332,3.394 -4.8339,4.4 -7.2731,5.623 -2.1772,1.091 -2.9811,1.136 -3.8191,0.209 -0.5064,-0.559 -0.5903,-1.058 -0.4203,-2.493 0.6619,-5.589 5.4994,-10.763 14.7292,-15.754 4.3488,-2.351 5.4517,-3.24 5.1139,-4.121 -0.4592,-1.196 -1.9228,-1.327 -12.382,-1.109 -14.9229,0.313 -23.9401,1.529 -31.9631,4.314 -5.2006,1.803 -8.0656,3.429 -11.3219,6.421 -3.4674,3.185 -4.9312,3.911 -7.9025,3.922 -2.6113,0.01 -4.1916,-0.679 -4.5141,-1.963 -0.3472,-1.383 0.4413,-2.457 3.9572,-5.387 6.8297,-5.692 13.4798,-8.691 26.896,-12.127 l 4.3917,-1.124 0.2476,-1.234 c 0.4318,-2.15 4.8018,-5.725 10.9792,-8.981 5.638,-2.973 8.7875,-3.573 14.897,-2.84 2.3084,0.277 5.4653,0.599 7.0154,0.715 1.5501,0.116 3.7696,0.298 4.932,0.405 l 2.1138,0.195 -2.0582,-1.258 c -5.0524,-3.088 -8.3382,-6.267 -10.8723,-10.518 -1.0469,-1.756 -1.6142,-2.376 -2.1701,-2.374 -0.4138,0 -3.3713,0.545 -6.5723,1.206 -13.1814,2.725 -18.7597,2.974 -28.1203,1.256 -10.7791,-1.978 -18.5294,-1.188 -26.8159,2.734 -1.9778,0.936 -3.2466,1.877 -5.1268,3.8 -2.9462,3.014 -4.7937,3.846 -6.3206,2.845 -1.4257,-0.935 -1.0344,-3.698 0.8655,-6.112 1.1208,-1.425 0.4922,-1.681 -2.9524,-1.199 -6.0044,0.84 -16.8507,4.419 -18.4979,6.104 -2.9536,3.021 -7.9315,2.495 -7.9315,-0.837 0,-3.237 1.4335,-4.393 8.4643,-6.829 5.2415,-1.815 6.3614,-2.433 5.7488,-3.171 -0.2994,-0.361 -1.2364,-0.508 -3.2823,-0.515 -3.0542,-0.01 -10.673,-0.515 -13.539,-0.895 l -1.7324,-0.23 -0.7897,2.927 c -2.0573,7.625 -5.4746,15.624 -8.7297,20.438 -1.6712,2.471 -7.003,7.975 -8.9816,9.272 -0.5046,0.33 -1.8173,1.939 -2.9171,3.575 -1.0999,1.637 -2.8887,3.767 -3.9752,4.735 -2.6303,2.345 -7.4217,4.77 -11.6214,5.882 -3.2019,0.849 -4.1531,0.923 -14.8701,1.169 -12.858,0.293 -12.5915,0.251 -22.7227,3.529 -7.7979,2.523 -11.6915,4.097 -13.6391,5.513 -2.0872,1.518 -3.45,1.932 -4.5524,1.386 z m -21.9674,-22.03 c 3.9545,-0.992 8.5385,-1.68 15.4986,-2.328 9.1441,-0.85 14.9723,-2.197 14.9723,-3.459 0,-0.657 -1.5457,-1.993 -4.7559,-4.11 -1.5501,-1.022 -3.1707,-2.177 -3.6015,-2.566 -0.6941,-0.628 -1.0868,-0.683 -3.4517,-0.483 -1.4676,0.124 -3.8531,0.624 -5.3012,1.109 -3.0786,1.034 -4.2585,1.103 -5.1443,0.302 -2.9706,-2.69 4.2286,-7.193 11.4391,-7.157 5.4322,0.03 6.8841,0.449 12.6927,3.694 6.0692,3.389 9.6952,4.804 12.3519,4.819 1.6324,0.01 4.494,-0.809 5.2847,-1.51 0.1726,-0.154 -0.5408,-1.163 -1.5853,-2.244 -1.6942,-1.752 -2.4065,-2.171 -6.5962,-3.885 -6.5983,-2.699 -16.078,-5.917 -21.419,-7.273 -3.7167,-0.943 -5.2326,-1.154 -8.4147,-1.168 -3.6919,-0.02 -3.9961,0.04 -6.2302,1.138 -6.2828,3.091 -8.8699,9.538 -9.5385,23.77 -0.095,2.013 -0.028,2.353 0.4334,2.219 0.2999,-0.09 1.8145,-0.479 3.3658,-0.868 z m 213.8089,-11.468 c 5.5974,-0.518 7.4197,-1.015 5.0949,-1.388 -6.6604,-1.072 -8.9288,-1.151 -10.783,-0.376 -1.4435,0.603 -3.6187,2.164 -3.6187,2.596 0,0.156 0.8323,0.148 1.8495,-0.02 1.0173,-0.163 4.3731,-0.531 7.4573,-0.815 z m -158.4099,-17.195 c 2.4902,-7.683 6.1223,-16.631 9.7302,-23.971 5.3659,-10.917 9.9697,-17.752 16.336,-24.249 l 3.6754,-3.752 -0.6927,-1.565 c -0.3809,-0.861 -2.344,-4.167 -4.3625,-7.346 -2.0184,-3.179 -4.6023,-7.4 -5.742,-9.38 -1.9057,-3.311 -2.2724,-3.732 -4.5651,-5.244 -5.5541,-3.661 -11.2999,-8.129 -15.2846,-11.884 -1.2649,-1.191 -2.3514,-1.959 -2.5211,-1.78 -0.7033,0.74 -2.5408,7.134 -2.5897,9.012 -0.046,1.742 0.099,2.221 1.0969,3.636 l 1.1493,1.631 -1.0417,0.973 c -0.5729,0.535 -2.2448,1.498 -3.7152,2.139 -2.9666,1.293 -2.8607,1.115 -3.1564,5.297 -0.5776,8.17 -5.812,21.505 -12.4298,31.666 -3.615,5.55 -6.4588,9.13 -11.2305,14.136 l -4.0285,4.227 v 2.313 c 0,2.054 0.1084,2.422 0.9688,3.279 1.8219,1.817 9.3577,5.964 16.1349,8.88 5.1379,2.211 19.272,7.675 19.8868,7.689 0.3746,0.01 1.0676,-1.653 2.3815,-5.707 z m 74.9824,-16.632 c 3.9863,-0.682 7.7886,-1.239 8.4497,-1.239 1.4433,0 1.586,-0.532 0.2332,-0.87 -2.7205,-0.678 -13.8843,-6.535 -17.2892,-9.07 -1.032,-0.768 -1.9258,-1.343 -1.986,-1.277 -0.06,0.07 -0.6211,1.309 -1.2465,2.762 -0.7859,1.826 -1.3293,3.947 -1.7607,6.869 -0.3433,2.326 -0.5741,4.313 -0.5131,4.418 0.2243,0.385 7.0617,-0.387 14.1126,-1.593 z m -9.5831,-17.656 c 1.5779,-1.723 3.2309,-4.515 4.1638,-7.034 0.6273,-1.694 0.7718,-2.824 0.7627,-5.965 -0.012,-3.966 -0.1024,-4.417 -2.6579,-13.211 -0.6525,-2.246 -0.7504,-3.33 -0.6516,-7.222 0.3117,-12.275 -0.092,-16.516 -2.2946,-24.132 -1.5025,-5.194 -3.5235,-9.704 -7.7044,-17.194 -1.8446,-3.305 -4.1639,-7.623 -5.1541,-9.595 -2.3194,-4.623 -4.1386,-6.569 -7.8557,-8.404 -3.9123,-1.932 -6.9811,-2.628 -11.5123,-2.614 -4.1117,0.01 -7.645,0.919 -10.8099,2.774 -2.0998,1.23 -1.5164,1.461 1.7016,0.672 1.944,-0.476 3.3839,-0.567 6.5906,-0.416 4.663,0.219 7.2408,0.818 10.8418,2.516 3.6316,1.713 5.1064,3.216 7.4145,7.559 1.0936,2.057 3.2175,5.976 4.7197,8.707 5.452,9.912 6.7817,12.866 8.3128,18.461 0.8529,3.118 0.9333,4.071 1.1726,13.916 0.2912,11.976 0.354,12.318 3.8464,20.91 2.2562,5.551 2.6026,7.356 1.9778,10.307 -0.5672,2.68 -1.4446,4.788 -3.3531,8.056 -0.7773,1.331 -1.4134,2.59 -1.4134,2.799 0,0.722 0.7459,0.373 1.9027,-0.89 z m 100.422,-13.792 c 3.0381,-5.753 9.363,-13.167 18.7075,-21.93 3.4092,-3.197 8.5064,-8.391 11.3269,-11.542 7.278,-8.13 9.4087,-9.497 14.2782,-9.158 3.0611,0.214 5.8189,1.209 8.8056,3.179 2.6241,1.729 10.0816,9.115 12.0724,11.956 0.7743,1.105 1.5281,2.016 1.6752,2.025 0.4681,0.03 -3.1285,-6.756 -4.9386,-9.319 -0.9583,-1.356 -2.8531,-3.587 -4.2106,-4.957 -6.2835,-6.344 -12.342,-8.386 -17.9905,-6.066 -4.6495,1.911 -5.9072,2.955 -17.518,14.546 -11.3362,11.318 -14.588,15.057 -18.4175,21.185 -2.102,3.363 -6.0649,11.156 -6.0649,11.925 0,1.26 1.1112,0.359 2.2743,-1.844 z m -51.0902,-56.78 c 0.8557,-0.946 0.5815,-1.94 -0.572,-2.073 -1.191,-0.138 -1.9178,0.97 -1.3419,2.047 0.4751,0.887 1.1264,0.895 1.9139,0.03 z m 59.1927,-0.95 c 0.9087,-0.349 1.6864,-2.134 1.2693,-2.914 -0.6873,-1.283 -2.2999,-1.444 -3.6721,-0.365 -2.1944,1.727 -0.2973,4.316 2.4028,3.279 z m -28.1926,-7.028 c 0.7959,-0.796 0.6829,-1.816 -0.3111,-2.809 -1.0396,-1.04 -2.0669,-1.104 -2.9844,-0.187 -0.838,0.839 -0.617,1.901 0.5932,2.853 1.0673,0.84 1.9582,0.887 2.7023,0.143 z m 18.3129,-3.701 c 0.9666,-1.149 1.0337,-1.36 0.7048,-2.217 -0.3022,-0.788 -2.3249,-1.37 -3.3728,-0.972 -1.0982,0.418 -3.1134,2.102 -3.1134,2.603 0,1.008 1.1958,1.669 3.0177,1.669 1.6353,0 1.9583,-0.127 2.7637,-1.083 z m 6.9614,-7.602 c 1.4219,-1.287 0.2504,-3.292 -1.9234,-3.292 -1.2531,0 -2.2375,0.513 -2.723,1.421 -0.3088,0.576 -0.2082,0.854 0.5718,1.577 1.119,1.037 3.0959,1.179 4.0746,0.294 z m -64.1772,-2.236 c 0.8232,-0.822 0.8591,-1.073 0.2643,-1.845 -0.8111,-1.053 -2.5114,-0.93 -3.2756,0.237 -1.2273,1.873 1.3631,3.257 3.0113,1.608 z m 19.0101,0.184 c 1.2392,-0.641 2.4796,-2.166 2.4796,-3.05 0,-0.947 -1.2586,-2.066 -2.3251,-2.066 -1.3905,0 -3.3115,2.085 -3.3115,3.594 0,1.999 1.1565,2.557 3.157,1.522 z m 37.7962,-4.781 c 1.5293,-0.426 2.5667,-2.002 2.2215,-3.378 -0.3255,-1.297 -2.1622,-2.237 -4.3696,-2.239 -3.1791,0 -4.9782,1.322 -4.5761,3.368 0.1792,0.913 1.6878,1.883 3.4666,2.232 0.8716,0.171 1.664,0.326 1.7608,0.346 0.097,0.02 0.7705,-0.127 1.4968,-0.329 z m -105.5567,-3.02 c 2.3219,-1.101 3.3685,-3.622 2.6352,-6.345 -0.2119,-0.787 -1.2608,-2.842 -2.3309,-4.567 -1.07,-1.725 -3.2818,-5.853 -4.9152,-9.173 -3.2258,-6.557 -4.1864,-7.727 -7.1875,-8.749 -2.1758,-0.742 -5.7351,-0.674 -8.7669,0.166 -4.5999,1.275 -6.1783,0.821 -8.9372,-2.572 -2.567,-3.156 -4.6598,-5.208 -6.1205,-5.999 -1.303,-0.707 -1.9397,-0.768 -8.4549,-0.808 -3.8753,-0.02 -7.3438,-0.06 -7.7078,-0.09 -0.3641,-0.02 -1.6087,-0.995 -2.7657,-2.155 -2.6309,-2.639 -4.1328,-3.192 -6.36,-2.341 -0.8426,0.322 -2.0736,1.143 -2.7355,1.826 -1.6864,1.74 -1.5983,3.184 0.4118,6.755 3.9771,7.064 8.1422,8.587 12.1232,4.432 l 1.5426,-1.61 -0.3686,1.335 c -0.4612,1.67 -0.104,4.225 0.7959,5.691 0.3803,0.621 1.4007,1.466 2.2855,1.895 2.14,1.035 3.7361,0.786 7.8823,-1.231 4.0837,-1.989 5.0639,-2.177 7.5505,-1.454 l 1.9687,0.572 -1.2112,1.211 c -2.5218,2.522 -1.9057,6.882 1.2199,8.632 1.4735,0.825 1.899,0.882 6.6819,0.894 7.4061,0.02 7.7467,0.236 10.8762,6.937 1.8425,3.946 3.4607,6.093 5.1464,6.827 1.5103,0.658 5.28,0.613 6.7418,-0.08 z m 64.1432,-5.833 c 1.6967,-1.595 0.8038,-4.224 -1.7644,-5.197 -3.3725,-1.278 -8.5449,1.149 -7.3214,3.435 1.3985,2.613 7.0194,3.703 9.0858,1.762 z m 50.9826,-1.725 c 2.1629,-2.57 -0.105,-6.019 -3.1279,-4.756 -1.4042,0.586 -1.9491,1.467 -1.9491,3.15 0,2.589 3.356,3.652 5.077,1.606 z m -25.8723,-0.143 c 1.9742,-1.022 3.1158,-3.629 2.0536,-4.692 -0.2326,-0.232 -0.9337,-0.422 -1.5582,-0.422 -1.6556,0 -3.3035,1.735 -3.3035,3.48 0,2.089 0.9067,2.616 2.8081,1.634 z m 13.1835,-3.205 c 0.3744,-0.977 0.2316,-2.01 -0.3692,-2.674 -0.6622,-0.731 -2.2377,-0.853 -2.8694,-0.222 -0.6045,0.605 -0.5217,2.055 0.1602,2.808 0.7332,0.811 2.7787,0.869 3.0784,0.09 z m -53.5753,-1.615 c 1.8463,-0.982 2.239,-3.26 0.8089,-4.69 -2.5295,-2.53 -7.2419,-0.496 -6.4219,2.772 0.4591,1.829 3.7008,2.937 5.613,1.918 z m -16.505,-1.74 c 1.8728,-1.644 1.6589,-3.486 -0.4048,-3.486 -2.1944,0 -4.1593,2.857 -2.8592,4.157 0.7234,0.723 1.9673,0.468 3.264,-0.671 z m 47.2586,-1.556 c 0.9781,-0.978 1.0146,-2.168 0.084,-2.75 -1.2342,-0.774 -3.2275,1.575 -2.6387,3.109 0.31,0.808 1.564,0.632 2.5546,-0.359 z m -72.0376,-0.369 c 0.6079,-0.313 1.2907,-1.086 1.5865,-1.794 0.463,-1.109 0.4591,-1.335 -0.036,-2.09 -1.1594,-1.77 -4.5311,-0.524 -4.9742,1.839 -0.2075,1.106 -0.1216,1.412 0.5483,1.955 0.9716,0.786 1.4983,0.802 2.8752,0.09 z m 104.6366,-0.375 c 1.0914,-0.988 1.4773,-2.751 0.8623,-3.941 -0.9922,-1.918 -2.9099,-2.013 -4.6909,-0.232 -1.0648,1.064 -1.2094,1.401 -1.0219,2.377 0.3129,1.631 1.8045,2.846 3.1598,2.576 0.5854,-0.117 1.3462,-0.469 1.6907,-0.78 z m -7.4705,-8.397 c 0.9744,-0.505 1.7822,-2.057 1.7822,-3.427 0,-0.948 -1.57,-2.397 -2.5992,-2.397 -1.1223,0 -2.8941,1.495 -3.1955,2.696 -0.2998,1.194 0.3399,2.749 1.3281,3.226 1.065,0.516 1.5305,0.499 2.6844,-0.1 z m -15.721,-0.245 c 1.58,-0.841 2.1192,-2.635 1.2695,-4.222 -0.952,-1.78 -5.3927,-2.284 -8.0654,-0.917 -1.9678,1.007 -2.3943,1.679 -1.8396,2.896 0.9031,1.981 6.4303,3.417 8.6355,2.243 z m -64.1074,-2.095 c 0.9098,-0.415 1.6408,-1.658 1.6408,-2.79 0,-1.117 -1.7915,-2.808 -3.2123,-3.034 -2.4916,-0.397 -5.0024,1.731 -4.3751,3.708 0.1248,0.393 0.7062,1.118 1.292,1.611 1.1678,0.983 3.1375,1.197 4.6546,0.505 z m 43.211,-6.655 c 0.8385,-0.838 0.9214,-2.55 0.1604,-3.311 -2.2419,-2.242 -7.7219,-0.905 -7.0623,1.723 0.5234,2.085 5.3043,3.186 6.9019,1.588 z m -144.6439,0.139 c 1.4194,-0.544 0.068,-2.494 -3.1417,-4.532 -2.6167,-1.661 -23.149,-12.284 -26.5236,-13.723 -1.6061,-0.684 -6.4413,-2.377 -10.7448,-3.76 -4.3037,-1.384 -10.0034,-3.362 -12.666,-4.397 -7.1854,-2.792 -13.9569,-4.886 -19.8529,-6.141 -2.8878,-0.615 -5.409,-1.144 -5.6028,-1.173 -0.1938,-0.03 -0.4009,0.364 -0.4603,0.877 -0.103,0.889 0.056,0.987 3.3468,2.08 4.9321,1.638 7.0042,2.576 23.5372,10.651 24.9672,12.194 41.0938,19.031 47.381,20.088 1.4424,0.243 4.1292,0.259 4.7271,0.03 z m 160.7788,-3.732 c 1.1543,-1.154 0.021,-3.309 -2.1789,-4.142 -0.8072,-0.307 -1.1879,-0.274 -1.8496,0.16 -1.1532,0.755 -1.0747,2.104 0.1967,3.375 1.1049,1.105 3.029,1.41 3.8318,0.607 z m -114.4238,-16.29 c 0,-0.09 -0.6946,-3.381 -1.5436,-7.322 -1.7467,-8.111 -2.9466,-11.342 -5.4927,-14.79 -3.2304,-4.374 -7.8757,-7.236 -16.5292,-10.184 -2.7823,-0.947 -4.9383,-1.923 -5.9449,-2.692 -1.4093,-1.076 -1.6368,-1.148 -2.1119,-0.673 -0.2928,0.293 -0.4422,0.768 -0.3319,1.055 0.3662,0.954 3.5073,2.812 9.0606,5.358 8.7299,4.002 11.5845,6.125 14.8144,11.011 2.0791,3.145 3.3518,6.42 5.128,13.196 1.2465,4.755 1.4297,5.196 2.1567,5.196 0.437,0 0.7945,-0.07 0.7945,-0.155 z m -53.8682,-21.231 c 1.46,-0.484 1.9055,-0.797 1.9055,-1.336 0,-0.661 -0.1953,-0.697 -3.1737,-0.586 -6.3094,0.236 -10.7921,-1.322 -14.4421,-5.021 -3.1375,-3.18 -3.7973,-4.771 -4.1032,-9.894 -0.3732,-6.254 -0.8373,-9.047 -1.5953,-9.602 -0.933,-0.685 -1.6234,0.326 -2.537,3.712 -1.2738,4.721 -0.8326,9.28 1.2834,13.261 1.4305,2.692 5.7973,6.912 8.5387,8.253 4.4794,2.189 9.802,2.646 14.1237,1.213 z m 9.9407,-5.064 c 2.2168,-1.468 4.5864,-4.173 5.7629,-6.578 0.7941,-1.623 0.9977,-2.585 1.1152,-5.273 0.1267,-2.897 0.03,-3.611 -0.8155,-6.008 -0.5275,-1.497 -1.2065,-3 -1.5087,-3.341 -1.4469,-1.63 -2.2168,1.476 -2.3362,9.427 -0.036,2.419 -0.2354,3.931 -0.6356,4.826 -0.9038,2.02 -3.3025,5.387 -4.3071,6.045 -0.4987,0.327 -0.9066,0.908 -0.9066,1.291 0,1.07 1.704,0.888 3.6316,-0.389 z m -10.574,-0.495 c 2.5374,-0.661 4.4328,-1.908 5.7884,-3.806 1.0526,-1.474 1.7489,-3.069 1.3399,-3.069 -0.1175,0 -1.0397,0.559 -2.0494,1.242 -5.0954,3.448 -12.0393,3.438 -17.183,-0.02 -1.0106,-0.68 -1.9125,-1.161 -2.0045,-1.069 -0.092,0.09 0.1789,0.882 0.6017,1.756 2.1216,4.381 7.7752,6.463 13.5069,4.97 z m -47.4867,-9.693 c 0.619,-0.513 0.6887,-1.861 0.1483,-2.871 -0.4354,-0.813 -3.6258,-2.405 -4.8319,-2.41 -0.9796,0 -2.5381,1.469 -2.5381,2.399 0,0.947 1.3255,2.523 2.6123,3.105 1.2356,0.56 3.8167,0.435 4.6094,-0.223 z m -4.0165,-1.15 c -1.0828,-0.557 -1.6162,-1.415 -1.3347,-2.148 0.3083,-0.804 1.4428,-0.719 2.886,0.215 1.4573,0.945 1.558,1.567 0.3288,2.035 -1.0824,0.412 -0.8579,0.424 -1.8801,-0.102 z m 38.7173,-3.991 c 2.604,-1.851 4.1036,-2.327 7.9265,-2.513 4.1806,-0.205 6.7924,0.503 10.1685,2.754 1.1362,0.758 2.127,1.377 2.2018,1.377 0.4354,0 -0.013,-1.48 -0.9341,-3.088 -3.5167,-6.131 -13.2227,-7.429 -18.8199,-2.513 -1.2563,1.102 -2.9973,4.104 -3.0054,5.182 0,0.517 0.1585,0.438 2.4626,-1.199 z m 22.8958,-5.339 c -0.01,-0.444 -4.1178,-2.946 -6.259,-3.808 -5.6632,-2.282 -13.8903,-1.833 -18.0495,0.985 -1.741,1.18 -1.8246,1.862 -0.1421,1.159 1.9133,-0.799 6.8496,-1.595 9.8946,-1.595 3.3571,0 7.2653,0.814 11.0362,2.298 3.2589,1.282 3.5244,1.355 3.5198,0.961 z" id="path1"/></g></svg>