<svg xmlns="http://www.w3.org/2000/svg" xmlns:svg="http://www.w3.org/2000/svg" width="563px" height="533px" viewBox="77 88 406.8767252 384.8767252" version="1.1" id="svg5" xml:space="preserve" data-square-offset-x="83.2423326" data-square-offset-y="95.24213259999999"><defs id="defs2" style="fill: rgb(255, 255, 255);"/><g id="layer1" style="fill: rgb(255, 255, 255);"><path style="fill: rgb(255, 255, 255); stroke-width: 1;" d="m 416.1794025999999 467.2831325999996 c -1.68298,-0.676 -1.78613,-1.608 -1.25626,-11.314 0.28665,-5.237 0.38111,-10.984 0.22585,-13.692 -0.63194,-10.994 -3.73948,-18.265 -7.80795,-18.265 -3.91429,0 -12.06535,5.58 -20.3163,13.909 l -3.97292,4.01 -3.08365,-3.022 -3.08257,-3.021 2.69168,-2.778 c 3.16075,-3.262 5.28673,-6.438 5.93712,-8.87 0.5657,-2.114 0.17807,-3.462 -1.31815,-4.575 -2.98051,-2.219 -16.28583,0.903 -24.4738,5.742 l -3.58204,2.117 -4.02178,-0.846 c -6.46265,-1.361 -6.1836,-1.188 -3.99029,-2.467 1.80133,-1.05 8.38776,-5.635 19.88306,-13.837 10.15326,-7.244 16.37269,-14.224 19.9341,-22.368 0.59827,-1.369 1.13248,-2.552 1.18568,-2.627 0.0543,-0.08 1.01305,0.384 2.13142,1.02 7.18144,4.086 12.59087,2.935 26.02649,-5.541 2.45172,-1.546 4.5625,-2.811 4.69171,-2.811 0.12921,0 0.23562,0.216 0.23562,0.481 0,0.781 2.43978,6.742 4.11516,10.052 5.18901,10.256 16.96879,23.96 28.63456,33.316 5.00443,4.013 13.26081,12.031 19.72996,19.162 5.19227,5.722 5.78403,6.96 4.09019,8.552 -1.80133,1.691 -2.40612,1.357 -11.84167,-6.53 -16.26953,-13.601 -22.9526,-18.21 -28.96464,-19.978 -1.74596,-0.514 -2.22696,-0.527 -3.27367,-0.09 -1.74379,0.729 -3.18246,2.593 -5.05546,6.554 -2.71883,5.747 -4.74709,13.108 -7.83617,28.439 -1.56681,7.772 -1.85346,8.652 -3.02937,9.281 -0.86864,0.465 -1.43976,0.464 -2.60591,0 z m -67.5744,-1.04 c -0.53638,-0.58 -1.71555,-2.174 -2.62002,-3.543 -4.18356,-6.336 -8.0023,-9.953 -12.68425,-12.017 -3.94143,-1.737 -7.19664,-2.206 -17.7625,-2.555 -10.49421,-0.346 -13.25647,-0.72 -18.4281,-2.495 -10.04034,-3.445 -18.54754,-10.048 -24.06012,-18.674 l -1.42239,-2.225 1.27038,0.231 c 1.37787,0.252 5.69499,-0.476 9.33349,-1.574 l 2.28017,-0.689 -3.4474,-0.297 c -5.86546,-0.505 -10.441,-1.834 -11.98934,-3.482 -1.53423,-1.633 -7.85572,-15.844 -12.36937,-27.804 -4.8155,-12.765 -6.24549,-18.041 -8.42033,-31.076 -0.43975,-2.633 -0.89578,-5.357 -1.01305,-6.053 -0.20956,-1.24 -0.1911,-1.259 0.89253,-0.958 1.94791,0.542 4.7384,0.211 6.79924,-0.807 2.17159,-1.072 5.92843,-4.236 4.64937,-3.916 -0.42129,0.109 -1.71338,0.46 -2.87193,0.787 -2.72643,0.771 -6.59728,0.779 -8.07179,0.01 -1.42348,-0.736 -7.11304,-7.821 -8.1402,-10.137 -0.68948,-1.555 -0.72097,-1.976 -0.32031,-4.316 0.2443,-1.425 0.44409,-3.494 0.44518,-4.596 0,-2.642 0.51249,-3.406 5.80791,-8.707 5.25524,-5.262 6.02399,-6.655 8.55932,-15.514 4.32363,-15.104 8.32478,-23.151 14.73314,-29.622 4.33014,-4.374 7.0164,-5.992 14.4606,-8.712 5.13038,-1.873 8.00991,-3.434 10.25424,-5.557 1.79156,-1.694 4.33775,-5.525 3.93818,-5.925 -0.0869,-0.09 -0.9631,0.586 -1.94357,1.5 -0.98047,0.913 -2.77746,2.186 -3.99464,2.829 -2.1857,1.157 -13.90034,5.199 -14.19784,4.9 -0.26059,-0.259 12.52789,-13.117 15.31947,-15.401 1.4441,-1.181 2.54836,-2.225 2.45281,-2.321 -0.29751,-0.298 -4.88716,2.067 -8.08483,4.165 -6.37904,4.187 -17.71039,16.439 -24.21538,26.182 -5.72974,8.582 -8.92306,15.74 -12.2141,27.38 -1.85779,6.574 -3.38333,9.297 -7.88612,14.086 -6.93063,7.372 -7.81989,11.542 -4.54839,21.341 0.61673,1.846 1.75138,4.38 2.5223,5.627 1.75681,2.847 3.67867,10.208 4.5853,17.56 0.8947,7.263 1.57115,9.924 6.36493,25.038 2.74597,8.656 4.10539,13.488 3.86326,13.729 -0.72857,0.728 -10.29442,3.71 -14.62891,4.559 -3.44305,0.674 -5.78511,0.868 -10.72547,0.882 -8.71676,0.02 -14.28688,-1.091 -21.06658,-4.224 l -2.87301,-1.328 v -3.911 c 0,-3.638 -0.10858,-4.15 -1.44194,-7.357 -2.41372,-5.807 -4.8991,-9.516 -15.55617,-23.223 -5.39531,-6.94 -8.84814,-12.233 -11.74287,-18.004 -6.34321,-12.642 -11.11744,-18.717 -20.66266,-26.291 -5.8394,-4.634 -7.57776,-6.285 -9.36823,-8.9 -4.84916,-7.081 -7.14453,-15.945 -7.5669,-29.225 -0.12595,-3.959 -0.35723,-7.062 -0.51358,-6.894 -0.5733,0.615 -1.12923,6.907 -1.12923,12.776 0,7.102 0.86538,12.948 2.6906,18.173 2.40178,6.874 4.88607,10.252 12.24016,16.641 10.29333,8.941 15.12185,14.984 20.4075,25.532 3.85783,7.701 7.18796,12.549 15.22175,22.163 7.27373,8.704 10.13589,12.647 12.40628,17.091 2.06953,4.052 3.74056,9.674 3.05868,10.291 -0.18349,0.166 -1.15419,0.574 -2.15747,0.905 -1.00327,0.332 -4.90345,2.422 -8.66572,4.644 -3.76337,2.221 -8.19992,4.685 -9.85901,5.473 -2.6982,1.284 -3.33991,1.436 -6.08045,1.441 -2.55379,0 -3.44088,-0.171 -5.32256,-1.051 -2.0717,-0.971 -2.21177,-1.113 -1.69601,-1.724 0.30945,-0.366 2.36051,-2.705 4.55599,-5.197 2.19656,-2.492 4.56033,-5.38 5.2509,-6.417 1.39524,-2.094 3.18246,-6.32 4.13362,-9.775 0.73617,-2.671 1.20414,-11.99 0.65147,-12.976 -0.2823,-0.505 -0.43757,0.02 -0.63084,2.15 -0.38003,4.175 -1.89363,9.811 -3.63307,13.523 -0.84475,1.803 -1.59069,3.278 -1.65692,3.277 -0.0652,0 -0.13681,-2.974 -0.15636,-6.607 -0.0434,-7.18 -0.5581,-10.054 -2.70471,-14.968 -1.1314,-2.591 -1.93489,-3.745 -1.51143,-2.173 1.66561,6.199 1.91317,8.013 1.93272,14.173 0.0217,7.441 -0.53856,9.988 -3.60484,16.301 -2.30623,4.75 -4.32906,7.031 -8.60383,9.701 -5.95341,3.718 -10.14241,4.641 -14.80155,3.258 -4.57011,-1.355 -6.87199,-3.14 -9.74283,-7.552 -0.79914,-1.227 -2.5907,-3.147 -3.98161,-4.267 -2.55161,-2.053 -12.55504,-8.722 -14.90795,-9.936 -1.26929,-0.656 -1.27038,-0.656 -0.82521,0.176 0.94356,1.762 9.17822,9.529 12.99262,12.253 3.2791,2.341 4.23242,3.254 5.2813,5.056 2.49841,4.291 5.72105,6.441 10.82211,7.219 5.31496,0.81 10.05011,-0.221 15.43782,-3.364 2.71992,-1.586 3.04131,-1.687 3.6385,-1.15 1.87951,1.692 4.7156,2.603 10.99149,3.528 13.07622,1.929 22.43577,4.961 43.67282,14.151 4.21397,1.823 8.35084,3.664 9.19342,4.088 2.69168,1.359 3.17378,2.749 1.52554,4.397 -1.14334,1.143 0.0434,1.429 -12.05992,-2.907 -15.26301,-5.467 -27.60414,-9.685 -27.79198,-9.497 -0.0977,0.1 2.62762,2.656 6.05221,5.689 7.68417,6.804 20.81142,19.668 24.79194,24.294 4.43221,5.151 4.97945,6.545 3.2867,8.371 -0.93921,1.013 -1.72207,1.195 -2.99136,0.693 -0.37134,-0.147 -4.76664,-4.324 -9.76781,-9.282 -14.81675,-14.692 -20.71804,-18.638 -37.0549,-24.776 -9.08158,-3.412 -19.61053,-6.85 -19.94712,-6.514 -0.0652,0.07 1.32467,1.112 3.0956,2.321 9.83621,6.709 17.95578,14.736 24.00582,23.734 2.94142,4.375 3.57987,5.859 3.03371,7.058 -0.51901,1.139 -2.03912,1.744 -3.23567,1.29 -0.49512,-0.188 -3.28887,-2.96 -6.20748,-6.161 -5.87632,-6.44 -10.2043,-10.298 -15.60612,-13.909 -4.93276,-3.299 -8.49526,-5.074 -16.57031,-8.262 -19.91998,-7.862 -37.34155,-19.784 -44.33189,-30.337 -1.20089,-1.813 -3.36705,-5.779 -4.81332,-8.81 -3.0652,-6.426 -6.07285,-11.728 -9.52133,-16.783 -4.65046,-6.816 -5.84266,-10.185 -5.84266,-16.501 0,-5.999 1.55486,-10.642 6.06307,-18.105 2.65694,-4.397 3.93166,-5.419 6.65918,-5.342 0.84692,0.02 1.09448,-0.171 1.25952,-0.998 0.47775,-2.378 2.23565,-5.156 3.95446,-6.245 3.02937,-1.922 5.3964,-2.42 11.54634,-2.432 6.42356,-0.01 8.02293,0.414 11.24883,3.006 1.08145,0.869 2.72968,2.097 3.66238,2.729 2.2856,1.548 4.67543,4.884 7.13258,9.959 3.80354,7.852 5.32908,15.035 5.06958,23.866 -0.15962,5.427 -0.22476,5.806 -1.84151,10.608 -1.46148,4.338 -1.67647,5.398 -1.67321,8.235 0,3.205 1.31707,9.305 2.10861,9.794 0.1911,0.119 0.34528,-1.94 0.3518,-4.696 0.0109,-6.914 0.47883,-9.754 2.56573,-15.745 l 1.82739,-5.249 -0.0326,-6.32 c -0.0217,-5.565 -0.14984,-6.77 -1.03802,-10.08 -2.11187,-7.867 -5.67762,-14.406 -10.52135,-19.29 -1.73727,-1.752 -3.15966,-3.276 -3.15966,-3.385 0,-0.11 -0.33659,-2.309 -0.74702,-4.886 -1.80025,-11.28 -2.36161,-18.397 -2.33338,-29.584 0.0109,-5.055 0.1607,-9.796 0.329,-10.533 0.28448,-1.25 0.33877,-1.135 0.8024,1.705 1.26169,7.727 4.33992,15.656 8.66355,22.317 2.52339,3.886 2.4159,3.747 2.68517,3.478 0.11293,-0.113 -0.73291,-1.995 -1.87951,-4.182 -3.96315,-7.551 -6.69609,-16.468 -7.52781,-24.558 -0.62867,-6.114 -0.11401,-10.441 1.81762,-15.285 1.34313,-3.37 1.42131,-3.793 1.29535,-7.033 -0.36374,-9.396 -0.33334,-9.775 1.03151,-12.544 1.60154,-3.251 3.88388,-6.145 6.04787,-7.671 1.57658,-1.112 1.6895,-1.308 1.6895,-2.939 0,-2.4 0.51792,-4 1.84042,-5.68 0.80566,-1.024 1.24975,-2.182 1.57657,-4.107 0.64496,-3.797 1.67538,-5.708 4.04459,-7.498 1.9946,-1.505 2.01197,-1.537 2.20633,-3.956 0.31271,-3.895 1.76116,-6.143 6.10542,-9.476 0.89035,-0.683 2.26931,-2.759 4.25197,-6.402 8.09242,-14.865 13.05559,-20.906 18.46284,-22.478 1.97832,-0.576 2.04021,-0.636 2.8513,-2.863 1.62978,-4.471 4.57554,-6.497 9.45292,-6.504 1.49514,0 3.28453,0.193 3.97401,0.434 1.55269,0.541 1.54726,0.544 9.92199,-5.492 6.65592,-4.797 9.13696,-6.344 11.92093,-7.43 0.9479,-0.37 2.78724,-1.659 4.08802,-2.863 3.00656,-2.786 5.21615,-3.599 9.70157,-3.567 2.55813,0.02 3.87086,0.249 6.12822,1.075 1.57983,0.58 3.21721,1.057 3.63958,1.064 0.42129,0.01 2.83393,-0.422 5.36166,-0.951 2.52881,-0.529 5.54515,-1.083 6.70369,-1.232 1.66126,-0.212 2.39092,-0.541 3.4474,-1.553 1.73401,-1.662 3.72318,-2.472 6.07176,-2.472 1.68515,0 2.04238,-0.159 3.41482,-1.533 0.84366,-0.842 2.06952,-1.639 2.72643,-1.771 0.6569,-0.131 1.19329,-0.358 1.19329,-0.505 0,-0.146 0.60587,-0.974 1.3453,-1.838 0.90229,-1.053 1.95117,-1.773 3.18137,-2.181 1.54183,-0.513 1.91643,-0.833 2.33772,-1.999 0.72748,-2.012 3.3931,-4.482 6.55168,-6.073 1.51251,-0.762 2.80352,-1.331 2.86867,-1.265 0.0651,0.07 -0.29751,1.392 -0.80566,2.947 -1.44736,4.431 -1.06408,4.793 0.86429,0.816 2.14444,-4.42 5.69933,-8.25 9.10547,-9.81 3.78182,-1.732 8.83402,-2.555 15.91992,-2.595 7.19447,-0.04 10.19235,0.393 15.83522,2.295 2.11838,0.713 4.35186,1.296 4.96534,1.296 1.58091,0 5.08803,-0.961 8.34758,-2.288 1.53749,-0.625 2.84478,-1.087 2.90667,-1.025 0.0651,0.06 -0.50381,1.949 -1.25626,4.196 -2.31709,6.918 -4.78944,8.859 -13.75267,10.788 -12.12724,2.612 -17.74079,5.419 -29.49451,14.756 -6.61032,5.251 -10.9383,8.033 -18.76904,12.064 -8.03271,4.135 -11.13374,6.119 -14.2934,9.145 -4.11624,3.94 -7.19881,8.887 -9.34326,14.992 -1.29318,3.681 -6.27154,23.464 -5.97838,23.757 0.86103,0.86 4.02287,-3.228 10.62993,-13.741 7.29219,-11.603 10.37584,-15.645 16.84826,-22.084 6.05765,-6.027 9.00775,-8.268 18.75384,-14.249 6.39641,-3.925 8.7819,-5.532 16.89713,-11.387 7.16081,-5.165 11.83733,-7.119 18.09802,-7.563 3.9664,-0.283 4.4561,-0.57 6.98383,-4.112 1.81002,-2.538 2.36268,-3.859 4.59942,-11.006 3.82308,-12.214 12.19564,-18.049 25.05362,-17.463 6.36492,0.291 11.61799,2.076 14.94161,5.079 0.80566,0.728 2.91101,2.12 4.67869,3.094 1.76658,0.974 5.22701,3.114 7.68851,4.757 4.42026,2.949 4.51364,2.989 7.47026,3.221 14.57896,1.139 26.79089,4.15 34.23183,8.443 1.65475,0.954 3.10863,1.735 3.23133,1.735 0.40066,0 -0.60588,-1.569 -1.98809,-3.099 -4.91322,-5.439 -14.38786,-8.668 -30.75838,-10.483 -7.82749,-0.868 -10.84383,-1.547 -14.08384,-3.17 -1.55377,-0.778 -2.90992,-1.551 -3.01199,-1.717 -0.26928,-0.435 8.3085,-0.37 12.12615,0.09 5.84809,0.707 26.50315,4.241 28.30123,4.843 3.45499,1.155 5.92083,3.054 8.37581,6.447 0.76223,1.054 3.89475,4.502 6.95994,7.663 6.40727,6.606 8.80254,9.632 10.60496,13.405 2.08146,4.353 2.41914,7.664 1.24323,12.186 l -0.37895,1.461 -0.80674,-1.078 c -1.09448,-1.461 -4.61679,-5.1 -4.9371,-5.1 -0.14333,0 -0.36266,0.414 -0.4897,0.92 -0.13681,0.543 -1.30729,1.718 -2.85455,2.865 -6.15971,4.566 -9.69506,6.021 -17.29996,7.121 -10.96435,1.586 -19.97101,4.016 -29.87671,8.06 -6.26503,2.557 -50.91506,24.859 -53.79242,26.869 -3.09451,2.161 -3.66564,3.039 -1.69927,2.613 5.89587,-1.274 17.86132,-6.513 48.98018,-21.445 18.51062,-8.882 22.84077,-10.425 36.474,-13.004 8.74716,-1.654 12.93615,-3.269 17.82331,-6.871 1.31707,-0.97 2.52339,-1.756 2.68083,-1.747 0.34636,0.02 4.69171,7.043 4.69171,7.579 0,0.915 -5.34428,9.801 -7.90566,13.146 -2.19114,2.861 -4.06305,3.772 -7.75366,3.772 h -2.77746 l -1.98592,2.011 c -2.61025,2.643 -4.38444,5.376 -11.33895,17.463 -11.63863,20.224 -12.5811,21.438 -22.22512,28.599 -1.56789,1.163 -3.55055,2.292 -4.40507,2.507 -5.0446,1.268 -7.25527,2.399 -15.48451,7.924 -7.58861,5.094 -12.26296,7.006 -17.08171,6.987 -3.63633,-0.01 -5.3356,-0.56 -11.94157,-3.832 -7.85463,-3.89 -9.18039,-4.18 -14.88298,-3.254 -5.65481,0.92 -8.87745,0.69 -12.1989,-0.863 -3.07714,-1.44 -2.96639,-0.804 0.23236,1.335 3.18464,2.129 4.61137,2.435 11.10659,2.376 6.38556,-0.05 7.35952,0.223 13.9948,4.012 4.80464,2.745 7.5441,3.71 11.26186,3.967 6.57014,0.458 12.36285,-1.751 20.79839,-7.928 4.69606,-3.439 7.38231,-5.175 9.14456,-5.91 0.81543,-0.341 1.50491,-0.619 1.53205,-0.618 0.0326,0 0.0869,0.603 0.14441,1.339 0.0543,0.736 0.80784,2.921 1.67864,4.855 1.53206,3.402 1.57549,3.608 1.33987,6.388 -0.81217,9.606 -8.79059,22.112 -19.00791,29.792 -6.53648,4.914 -12.19347,7.071 -18.35427,6.999 -6.0609,-0.06 -6.22811,0.462 2.56248,-8.18 10.10331,-9.933 10.20864,-10.444 0.65908,-3.228 -12.68642,9.586 -32.53691,26.339 -31.93104,26.948 0.13464,0.135 1.94357,-0.935 4.02178,-2.376 5.46372,-3.793 7.15973,-4.813 11.41061,-6.864 l 3.80354,-1.835 6.73084,-0.261 c 7.28025,-0.285 9.21296,-0.662 14.55615,-2.839 1.77636,-0.723 3.2791,-1.266 3.34099,-1.205 0.16722,0.168 -4.00983,3.78 -6.90891,5.974 -1.41044,1.067 -4.75252,3.02 -7.42791,4.339 -5.59944,2.76 -7.28677,4.229 -8.53543,7.429 -0.82955,2.127 -0.87841,2.788 -0.92075,12.398 -0.0543,11.241 -0.4821,14.383 -2.93382,21.33 -3.6993,10.484 -10.97738,20.068 -20.16537,26.55 -7.6125,5.371 -25.11442,15.347 -25.77133,14.691 -0.18567,-0.187 -1.30186,-3.956 -2.47995,-8.377 -1.17809,-4.421 -3.15858,-11.744 -4.4029,-16.273 -3.73296,-13.6 -4.5549,-17.049 -5.16078,-21.671 -0.92183,-7.039 -1.07276,-6.517 2.62763,-9.083 3.62764,-2.515 8.45182,-7.315 11.05121,-10.998 0.96744,-1.369 2.77095,-4.373 4.00984,-6.673 l 2.25085,-4.184 4.96751,-1.611 c 9.19776,-2.985 11.87967,-4.603 20.77341,-12.529 6.73084,-5.999 19.50412,-18.528 19.20227,-18.834 -0.25407,-0.258 -6.24331,3.979 -10.51374,7.436 -1.48537,1.202 -3.13469,2.47 -3.66456,2.818 l -0.96418,0.632 0.67428,-2.585 c 0.7025,-2.693 0.88926,-6.395 0.47557,-9.416 -0.32031,-2.334 -0.74377,-1.969 -1.07059,0.921 -0.54941,4.853 -2.8589,10.446 -6.08696,14.74 -3.52558,4.691 -11.43124,11.325 -12.90792,10.833 -0.20956,-0.07 0.36808,-1.248 1.2834,-2.616 6.49414,-9.709 9.22274,-17.481 8.98278,-25.595 -0.11727,-3.976 -0.32357,-3.991 -1.04345,-0.07 -1.71772,9.347 -6.99251,19.34 -14.61913,27.694 -2.75575,3.018 -3.36379,3.417 -2.67648,1.753 0.20738,-0.501 1.01521,-2.548 1.79373,-4.55 0.7796,-2.001 2.43978,-5.323 3.68844,-7.381 5.12278,-8.441 6.97189,-14.111 6.96103,-21.347 0,-5.089 -0.64279,-7.905 -2.71557,-12.033 -1.96529,-3.912 -5.94147,-7.734 -10.13372,-9.741 -3.93926,-1.884 -12.70271,-4.173 -11.40084,-2.978 0.0869,0.08 1.45279,0.791 3.03262,1.577 9.12176,4.541 15.40417,11.419 16.87433,18.478 1.41805,6.806 -1.1162,16.881 -6.25526,24.873 -2.3616,3.673 -3.44522,5.869 -5.10975,10.349 -5.20312,14.011 -12.22713,24.061 -20.5606,29.418 l -1.07059,0.688 0.36048,-0.917 c 0.19871,-0.505 0.5581,-2.669 0.79806,-4.81 0.51901,-4.617 0.98156,-6.364 5.20096,-19.664 1.77201,-5.583 3.9132,-12.65 4.75903,-15.704 1.71339,-6.191 3.58964,-14.565 3.32253,-14.832 -1.31598,-1.316 -12.53766,29.139 -15.27386,41.453 -0.59176,2.663 -1.02065,3.932 -1.16506,3.447 -0.57113,-1.917 -1.11403,-9.116 -0.91641,-12.164 0.11944,-1.85 0.0651,-3.272 -0.11075,-3.162 -0.18133,0.112 -0.68948,1.288 -1.13031,2.613 -2.17268,6.529 -1.54835,13.449 1.83499,20.339 l 1.83173,3.73 -1.4061,0.716 c -4.95774,2.53 -13.55288,1.659 -19.11432,-1.936 -1.32576,-0.856 -2.52013,-1.445 -2.65368,-1.307 -0.13464,0.138 0.53204,0.936 1.47994,1.775 4.74383,4.196 9.14998,6.124 14.17287,6.2 1.79047,0.02 4.04892,-0.09 5.01745,-0.252 l 1.76225,-0.303 0.2443,2.89 c 0.13464,1.589 0.67754,4.979 1.20632,7.534 0.52986,2.555 0.96201,4.924 0.96093,5.266 0,0.378 -0.86104,-0.277 -2.20417,-1.679 -3.92189,-4.095 -10.9448,-9.767 -11.4573,-9.255 -0.11183,0.112 0.40718,0.813 1.15312,1.559 5.84374,5.844 11.40844,13.609 15.12402,21.103 2.84804,5.744 4.20311,9.871 6.35407,19.344 2.28234,10.059 5.46155,21.771 6.23246,22.967 0.3442,0.535 2.85347,3.688 5.57447,7.007 4.47564,5.457 5.03808,6.009 5.90455,5.791 0.52769,-0.131 3.09885,-0.01 5.71345,0.259 5.90129,0.619 7.7884,0.321 14.70056,-2.323 6.3747,-2.437 7.55279,-2.477 8.68418,-0.289 0.32791,0.633 0.49187,1.545 0.367,2.041 -0.38871,1.55 -9.5691,8.22 -11.29334,8.206 -0.54616,0 -2.44955,-0.435 -4.22917,-0.958 -3.77205,-1.106 -3.85023,-1.115 -3.85023,-0.422 0,0.29 0.89035,0.91 1.97832,1.378 2.80026,1.205 12.69293,3.709 18.19357,4.605 2.56247,0.418 6.00987,1.184 7.66136,1.703 1.65041,0.52 5.71237,1.721 9.02404,2.67 6.54625,1.875 9.76672,3.289 12.77328,5.608 2.64717,2.042 7.05983,6.665 7.05983,7.397 0,0.853 -1.52554,2.158 -2.52447,2.158 -0.4658,0 -2.37246,-1.125 -4.23677,-2.5 -4.51039,-3.33 -7.86658,-4.931 -13.37155,-6.379 -6.20532,-1.634 -10.24556,-1.669 -15.87323,-0.138 -4.50387,1.226 -6.33778,1.915 -6.71455,2.524 -0.14007,0.227 0.38329,1.308 1.16397,2.4 3.98921,5.585 10.02405,14.939 11.1598,17.298 1.55377,3.227 1.64497,4.858 0.34528,6.157 -1.31816,1.318 -3.20744,1.271 -4.48868,-0.114 z m -230.73669,-75.843 c -0.72749,-1.422 -2.25954,-4.612 -3.40397,-7.09 -2.46258,-5.329 -2.88495,-5.91 -6.05222,-8.308 -3.09017,-2.338 -4.60594,-4.078 -6.05113,-6.941 -1.33987,-2.654 -2.11947,-5.582 -2.48429,-9.328 -0.14224,-1.458 -0.83498,-4.608 -1.53858,-7 -0.70359,-2.392 -1.49622,-5.639 -1.76115,-7.214 -0.26494,-1.576 -0.60588,-2.734 -0.75897,-2.576 -0.57222,0.596 -1.10426,4.981 -1.10426,9.089 0,5.322 0.64497,7.91 2.95988,11.884 0.98264,1.686 2.87735,5.105 4.21179,7.599 2.62437,4.905 5.04786,8.662 8.68853,13.469 2.44412,3.228 7.76994,9.001 8.30307,9.001 0.17264,0 -0.28122,-1.164 -1.0087,-2.585 z m 9.56693,-3.398 c 0.54181,-1.184 0.9859,-2.239 0.9859,-2.346 0,-0.364 -4.24111,0.16 -4.65589,0.575 -0.29859,0.298 -0.0651,0.908 0.84475,2.169 0.69274,0.965 1.38982,1.755 1.54943,1.755 0.15961,0 0.734,-0.969 1.27581,-2.153 z m 38.63473,-6.457 c 1.7351,-0.724 3.25629,-1.997 3.91863,-3.279 0.80783,-1.562 0.71228,-4.149 -0.21065,-5.661 -2.28885,-3.755 -10.91006,-3.711 -12.90249,0.07 -1.28341,2.432 -0.56895,6.354 1.51143,8.291 1.66235,1.55 4.80138,1.789 7.68308,0.584 z m -46.56429,-11.504 c 2.4843,-0.738 4.09562,-2.506 4.65263,-5.104 1.03802,-4.838 -2.48538,-9.037 -8.00122,-9.538 -6.55494,-0.595 -10.26944,4.783 -7.29653,10.563 2.0326,3.95 5.98272,5.464 10.64512,4.079 z m 13.88514,-3.625 c 1.12054,-1.12 1.3529,-2.529 0.60696,-3.669 -1.74704,-2.666 -5.34645,-1.564 -5.34645,1.637 0,2.439 3.03262,3.739 4.73949,2.032 z m 17.6105,-2.681 c 1.56788,-0.839 1.16505,-3.075 -0.55485,-3.075 -1.35072,0 -1.95877,1.31 -1.16831,2.516 0.69056,1.052 0.75897,1.075 1.72316,0.559 z m 58.0737,-1.174 c 1.66235,-1.027 3.01308,-3.781 2.69277,-5.49 -0.47124,-2.512 -3.18898,-3.981 -5.73951,-3.105 -2.63305,0.906 -4.06304,2.86 -4.06304,5.556 0,2.324 1.58417,3.82 4.0435,3.82 1.14659,0 2.26388,-0.284 3.06628,-0.781 z m -12.4128,-11.297 c 6.06307,-1.276 6.10759,-4.237 0.14441,-9.68 -4.4181,-4.034 -8.087,-4.921 -10.55826,-2.554 -2.04238,1.957 -2.8969,6.404 -1.75465,9.137 1.3529,3.239 5.94255,4.406 12.1685,3.097 z m -44.28303,-0.736 c 1.79264,-1.793 0.85235,-4.423 -1.582,-4.423 -2.34641,0 -3.6917,2.979 -2.07496,4.596 1.03585,1.036 2.51796,0.966 3.65696,-0.173 z m -34.89308,-5.731 c 0.71336,-0.299 1.50816,-0.936 1.7655,-1.417 0.69056,-1.29 0.60913,-4.545 -0.15093,-5.985 -1.74813,-3.316 -8.92848,-4.198 -11.88184,-1.459 -1.35616,1.256 -1.42891,4.083 -0.15202,5.962 1.80025,2.65 7.33129,4.189 10.41929,2.899 z m 104.89857,-0.234 c 1.21935,-0.96 1.58526,-2.02 1.04345,-3.031 -0.63953,-1.197 -1.70904,-1.62 -2.92404,-1.158 -2.11839,0.805 -2.80135,3.259 -1.21609,4.368 1.13682,0.797 1.91208,0.752 3.09668,-0.179 z m -73.14344,-3.994 c 1.97289,-1.829 1.01088,-4.806 -1.55268,-4.806 -2.63414,0 -4.18791,3.205 -2.41372,4.979 1.04562,1.045 2.73077,0.972 3.9664,-0.173 z m 49.72612,-12.335 c 0.83606,-0.757 0.91967,-2.538 0.14875,-3.177 -0.90229,-0.748 -2.61567,-0.327 -3.24435,0.798 -0.50489,0.904 -0.49512,1.114 0.0869,2.011 0.75246,1.148 1.97506,1.297 3.00331,0.368 z m 14.5073,-0.898 c 1.07602,0 3.32144,-2.152 3.81982,-3.66 0.56244,-1.706 0.19544,-3.311 -1.04128,-4.547 -1.40284,-1.404 -4.16619,-1.396 -5.84483,0.02 -3.14989,2.651 -3.08582,6.621 0.12921,8.023 0.65799,0.287 1.42565,0.442 1.70579,0.344 0.28013,-0.1 0.83497,-0.178 1.23129,-0.178 z m -25.58566,-9.25 c 4.32472,-0.927 3.88063,-4.796 -1.10208,-9.593 -2.43218,-2.34 -6.09782,-4.523 -7.59622,-4.523 -2.00437,0 -3.74273,1.23 -4.93276,3.492 -0.95876,1.821 -1.07059,2.385 -0.95115,4.815 0.11183,2.294 0.29316,2.922 1.08579,3.771 1.14986,1.23 2.78615,2.13 4.59074,2.525 1.55051,0.337 6.2596,0.08 8.90568,-0.487 z m 15.8678,-13.063 c 1.09448,-1.215 1.31815,-2.067 0.82737,-3.146 -0.57873,-1.268 -2.1629,-1.784 -3.61243,-1.173 -1.87626,0.788 -2.4767,3.12 -1.21066,4.702 0.6569,0.821 3.12491,0.584 3.99572,-0.383 z m 37.64774,-0.09 c 2.91101,-1.505 3.54403,-4.407 1.42348,-6.527 -2.38766,-2.388 -5.86112,-2.078 -7.53867,0.674 -1.177,1.929 -1.00328,3.577 0.53747,5.118 1.06299,1.063 1.59503,1.303 2.89147,1.303 0.87406,0 2.08363,-0.255 2.68625,-0.568 z m -71.47675,-6.671 c 2.80352,-1.849 3.32471,-4.697 1.24107,-6.781 -1.06734,-1.067 -1.59286,-1.303 -2.90993,-1.303 -4.09019,0 -6.58426,4.968 -3.86109,7.691 0.89361,0.894 1.45388,1.119 2.77747,1.117 0.97721,0 2.10644,-0.298 2.75248,-0.724 z m 56.97163,-2.165 c 1.30729,-0.675 2.64173,-2.64 2.6439,-3.889 0,-2.075 -1.81979,-3.944 -3.84805,-3.944 -1.38439,0 -3.47997,1.215 -4.23785,2.458 -2.28994,3.755 1.4441,7.442 5.442,5.375 z m -21.90373,-3.265 c 2.67431,-0.574 3.86434,-1.592 3.86434,-3.305 0,-1.178 -0.35505,-1.713 -2.62436,-3.942 -3.21395,-3.157 -5.49087,-4.211 -7.1923,-3.332 -2.12273,1.098 -3.20635,3.196 -3.20635,6.208 0,3.819 3.63632,5.554 9.15867,4.371 z m -22.64207,-0.431 c 1.08037,-1.081 -0.11726,-3.154 -1.36593,-2.366 -1.09013,0.687 -1.43433,1.554 -0.88275,2.218 0.59828,0.721 1.60915,0.787 2.24868,0.148 z m 57.91627,-7.202 c 0.42128,-0.421 0.76657,-1.024 0.76657,-1.34 0,-0.618 -1.31816,-2.108 -1.86431,-2.108 -0.64496,0 -2.34966,1.598 -2.34966,2.201 0,0.859 1.13248,2.013 1.97506,2.013 0.38871,0 1.05105,-0.345 1.47234,-0.766 z m -55.87932,-5.317 c 1.85671,-1.857 2.05975,-3.912 0.54833,-5.543 -1.69601,-1.831 -5.30193,-1.09 -6.56254,1.346 -1.54834,2.994 -0.14224,5.684 2.97182,5.684 1.29644,0 1.8035,-0.248 3.04239,-1.487 z m -30.15793,-0.845 c 1.59069,-1.252 2.15204,-2.717 2.14227,-5.597 -0.0109,-4.144 -1.62326,-6.973 -3.67433,-6.459 -1.31924,0.332 -5.38771,4.222 -6.31715,6.042 -1.08362,2.121 -0.95875,4.154 0.32791,5.354 1.3529,1.26 1.7579,1.393 4.35404,1.43 1.63195,0.02 2.39526,-0.163 3.16726,-0.77 z m 13.45082,-1.253 c 1.0315,-1.574 -0.37894,-3.086 -2.04781,-2.192 -1.08037,0.577 -1.3225,1.568 -0.58416,2.385 0.87732,0.969 1.92077,0.893 2.63197,-0.193 z m 65.96851,-2.533 c 0.67971,-0.415 1.3453,-1.194 1.47994,-1.731 0.52769,-2.102 -1.44954,-7.049 -3.90235,-9.763 -2.64391,-2.927 -5.44091,-2.856 -8.13694,0.206 -1.85888,2.113 -2.61893,4.537 -2.00437,6.399 0.76548,2.319 2.86758,3.788 6.95342,4.857 3.61135,0.946 4.10647,0.948 5.6103,0.03 z m -27.97549,-2.872 c 0.46146,-0.132 1.36593,-0.841 2.01089,-1.576 2.13359,-2.429 1.28884,-6.248 -1.51794,-6.865 -1.8415,-0.404 -4.36489,1.025 -5.33016,3.019 -1.03151,2.13 -0.99459,2.999 0.18133,4.398 1.24432,1.478 2.27908,1.706 4.65588,1.024 z m -27.26972,-5.538 c 2.22262,-1.247 3.95121,-4.997 3.42677,-7.433 -0.9631,-4.476 -4.55274,-6.029 -8.91003,-3.858 -4.67434,2.33 -5.52452,8.693 -1.47994,11.082 2.33663,1.381 4.74818,1.453 6.9632,0.209 z m -14.77332,-0.271 c 0.43649,-0.555 0.79372,-1.417 0.79372,-1.916 0,-1.19 -1.28232,-2.437 -2.5071,-2.437 -1.21826,0 -2.85564,1.587 -2.85564,2.77 0,2.53 3.00548,3.571 4.56902,1.583 z m -16.76031,-1.54 c 1.38981,-1.258 0.42997,-3.117 -1.37571,-2.663 -1.24649,0.311 -1.6352,1.603 -0.772,2.558 0.81761,0.904 1.24107,0.925 2.14771,0.108 z m 19.24353,-7.44 c 1.19003,-1.413 1.25517,-2.388 0.22584,-3.418 -1.10208,-1.102 -2.83175,-0.991 -3.80245,0.243 -1.01847,1.295 -1.00653,2.356 0.0434,3.467 1.14334,1.218 2.35183,1.119 3.53752,-0.292 z m 25.51399,-0.64 c 0.74268,-0.669 1.24975,-1.567 1.39199,-2.462 0.59284,-3.73 -4.91974,-4.717 -6.71673,-1.203 -0.66559,1.302 -0.51358,2.26 0.56353,3.54 1.3149,1.562 3.11406,1.61 4.76121,0.125 z m 15.31404,-0.746 c 3.36162,-1.511 6.12931,-5.396 6.12931,-8.605 0,-0.647 -0.44518,-1.572 -1.11946,-2.326 -1.0771,-1.203 -1.22694,-1.25 -3.92623,-1.225 -4.76338,0.04 -10.6625,2.559 -11.97848,5.105 -1.36159,2.632 -0.32465,5.848 2.35617,7.308 1.8654,1.016 5.98164,0.892 8.53869,-0.257 z m 50.44166,0.201 c 1.48645,-1.397 0.94138,-2.998 -1.01957,-2.998 -2.08146,0 -3.48322,2.118 -2.23022,3.37 0.7188,0.72 2.27691,0.541 3.24979,-0.372 z m 17.11428,-0.413 c 1.46257,-1.33 1.60806,-2.405 0.47558,-3.536 -1.26278,-1.263 -2.33554,-1.219 -3.70907,0.155 -1.32901,1.329 -1.38548,1.887 -0.32574,3.233 0.97939,1.245 2.29211,1.3 3.55923,0.148 z m -117.90856,-0.461 c 1.10534,-1.106 1.16723,-1.623 0.30619,-2.573 -0.78828,-0.872 -1.95985,-0.899 -2.87844,-0.06 -0.87189,0.788 -0.89903,1.96 -0.0651,2.879 0.85343,0.942 1.51794,0.881 2.63956,-0.24 z m 68.08255,-1.581 c 4.57337,-1.558 8.22164,-8.202 6.02833,-10.981 -0.65582,-0.832 -1.14985,-1.054 -2.34423,-1.054 -3.71776,0 -9.47898,3.155 -10.70919,5.865 -0.89252,1.965 -0.91532,2.663 -0.14332,4.289 1.09557,2.308 3.81765,3.023 7.16841,1.881 z m -81.82979,-2.282 c 1.75899,-1.03 2.81329,-2.587 2.81329,-4.151 0,-1.294 -1.75681,-3.304 -2.88712,-3.304 -1.97181,0 -4.31278,5.272 -3.31385,7.464 0.55376,1.216 1.30187,1.214 3.38768,-0.01 z m 121.92492,-0.249 c 1.42673,-1.531 0.80783,-3.375 -1.13357,-3.375 -1.85345,0 -2.5071,1.667 -1.31924,3.362 0.75245,1.075 1.46039,1.079 2.45281,0.01 z m -92.75397,-0.708 c 1.88276,-1.755 0.20847,-4.908 -2.05758,-3.875 -0.84475,0.385 -1.70036,1.776 -1.70036,2.765 0,0.617 1.49948,1.89 2.22588,1.89 0.3822,0 1.07168,-0.351 1.53206,-0.78 z m 88.92328,-0.716 c 0.68514,-1.653 0.3898,-2.883 -0.72965,-3.041 -1.11185,-0.156 -1.93597,0.795 -1.93597,2.236 0,2.048 1.91208,2.626 2.66562,0.805 z m 19.05678,-0.678 c 0.50489,-0.766 0.47123,-0.888 -0.40935,-1.464 -1.67972,-1.1 -3.45717,0.657 -2.06952,2.044 0.67102,0.671 1.83065,0.399 2.47887,-0.58 z m -34.46962,-0.449 c 2.42892,-1.245 4.15642,-2.933 5.25198,-5.13 1.78939,-3.592 0.98156,-6.864 -1.82413,-7.39 -2.69494,-0.505 -9.26508,1.737 -11.92202,4.07 -3.36271,2.954 -3.25956,7.131 0.22041,8.91 1.78396,0.914 6.05873,0.676 8.27376,-0.46 z m -64.9153,-2.032 c 0.68623,-0.81 0.88058,-2.482 0.37677,-3.235 -1.01413,-1.52 -3.29104,-1.371 -4.4561,0.291 -0.8632,1.233 -0.76439,2.12 0.36375,3.249 1.13356,1.133 2.60047,1.013 3.71558,-0.305 z m 94.29037,-1.974 c 3.48323,-2.314 5.58858,-6.12 5.58858,-10.106 0,-2.503 -0.40608,-3.359 -1.97288,-4.17 -4.44199,-2.297 -15.59961,6.753 -14.75378,11.967 0.23562,1.45 1.43977,3.037 2.74489,3.617 0.42129,0.187 2.01415,0.28 3.53861,0.207 2.42783,-0.116 3.02936,-0.304 4.85458,-1.515 z m 8.6527,0.118 c 0.96852,-0.97 0.96527,-1.557 -0.0109,-2.609 -0.92944,-0.998 -2.14988,-1.078 -3.11515,-0.204 -0.8708,0.788 -0.89795,1.959 -0.0651,2.878 0.83171,0.92 2.24108,0.89 3.19657,-0.06 z m -122.81744,-0.146 c 1.85779,-0.776 2.92513,-2.33 2.92513,-4.259 0,-1.88 -1.15312,-3.64 -2.38549,-3.64 -1.50383,0 -6.01205,5.805 -5.51475,7.101 0.47883,1.248 2.9501,1.644 4.97511,0.798 z m 33.0114,-0.411 c 1.97831,-1.98 0.51575,-4.982 -2.01632,-4.141 -2.15205,0.714 -2.66237,3.705 -0.7872,4.609 1.31706,0.635 1.77636,0.558 2.80352,-0.468 z m 94.1807,-4.084 c 1.34204,-1.056 1.23998,-2.807 -0.22693,-3.897 -1.01522,-0.754 -1.03585,-0.754 -2.29863,-0.02 -1.01304,0.589 -1.29861,1.022 -1.3909,2.111 -0.20847,2.462 1.86539,3.417 3.91646,1.804 z m -78.09249,-2.885 c 1.22152,-1.318 1.19437,-2.56 -0.076,-3.561 -1.10533,-0.87 -2.17701,-0.769 -3.25195,0.306 -1.07494,1.075 -1.17591,2.146 -0.30619,3.251 1.03367,1.314 2.42132,1.316 3.63632,0 z m -59.85766,-1.189 c 2.99787,-2.489 14.06538,-12.887 14.06538,-13.214 0,-0.171 -0.30077,-0.419 -0.66994,-0.55 -1.16506,-0.415 -5.30628,-3.479 -5.89043,-4.359 -0.55593,-0.839 -0.57005,-0.832 -2.12056,1.026 -4.84807,5.81 -10.09897,16.863 -8.6831,18.279 0.57005,0.57 1.6591,0.18 3.29865,-1.182 z m 78.24341,-0.652 c 1.80134,-1.803 0.89687,-4.806 -1.44736,-4.806 -1.46908,0 -3.35836,1.852 -3.35836,3.292 0,2.416 2.96856,3.351 4.80572,1.514 z m -28.5097,-2.846 c 1.2769,-1.276 1.48754,-1.725 1.48754,-3.171 0,-2.071 -0.74051,-3.191 -2.49081,-3.77 -3.54512,-1.169 -7.22922,2.828 -5.78728,6.28 0.68296,1.635 1.51034,2.122 3.63089,2.136 1.43977,0.01 1.87951,-0.195 3.15966,-1.475 z m -21.45963,-0.171 c 3.18898,-1.685 2.87301,-3.685 -0.99676,-6.309 -3.37031,-2.285 -5.74168,-0.947 -5.74168,3.241 0,1.838 0.1379,2.231 1.07385,3.036 1.39307,1.197 3.43654,1.209 5.66459,0.03 z m 142.50832,-5.646 c 1.73075,-0.884 4.05001,-0.939 6.61683,-0.16 1.03367,0.313 2.38223,0.57 2.99679,0.57 4.00549,0 18.95688,-7.262 27.44562,-13.331 3.53317,-2.525 10.50723,-8.51 10.23469,-8.783 -0.0977,-0.1 -2.47235,1.359 -5.27913,3.234 -2.80678,1.874 -6.91216,4.427 -9.12501,5.671 -6.00336,3.377 -17.23047,8.53 -19.98513,9.174 -2.27257,0.531 -2.62871,0.514 -5.74602,-0.259 -4.42353,-1.097 -5.7254,-0.736 -8.85248,2.46 -2.37681,2.429 -5.63528,6.636 -5.63528,7.276 0,0.208 1.3225,-0.857 2.93925,-2.366 1.61783,-1.511 3.59289,-3.08 4.38987,-3.486 z m -75.15542,5.212 c 1.7655,-0.913 2.12055,-2.834 0.70794,-3.823 -1.14552,-0.802 -2.05867,-0.75 -2.97942,0.169 -1.04019,1.042 -0.99785,2.859 0.0869,3.618 1.02933,0.721 0.86538,0.718 2.1857,0.03 z m 10.78193,-1.326 c 1.25953,-1.259 1.39634,-2.145 0.52336,-3.392 -0.87298,-1.245 -2.93273,-1.163 -3.97292,0.159 -0.43649,0.555 -0.79372,1.307 -0.79372,1.672 0,0.995 1.48211,2.681 2.35617,2.681 0.42238,0 1.27147,-0.504 1.88711,-1.12 z m 43.47086,-0.555 c 6.99686,-1.863 13.96114,-7.516 13.95354,-11.328 0,-1.681 -0.71879,-2.78 -3.54077,-5.442 -1.53206,-1.445 -2.20091,-2.363 -2.19656,-3.019 0.0109,-2.489 1.18894,-2.83 9.95347,-2.895 4.20637,-0.03 8.29873,-0.253 9.36715,-0.508 4.38878,-1.046 8.201,-2.96 15.33901,-7.704 5.58424,-3.71 13.58112,-8.346 25.08945,-14.545 25.93962,-13.973 38.59347,-21.336 42.13533,-24.516 l 1.33987,-1.205 -1.72316,0.24 c -1.80024,0.25 -5.71996,1.764 -13.78958,5.326 -2.63305,1.163 -5.81552,2.382 -7.07069,2.708 -2.4159,0.629 -5.57013,0.797 -5.57013,0.297 0,-0.767 1.56354,-2.306 5.72539,-5.639 2.48539,-1.989 5.06306,-4.239 5.72974,-4.998 1.19003,-1.354 1.2074,-1.432 0.96093,-4.154 l -0.25082,-2.773 2.17484,-4.189 c 3.12926,-6.024 3.27042,-8.861 0.64931,-13.093 -1.24649,-2.011 -1.65801,-2.092 -0.97939,-0.192 0.9023,2.528 0.68731,5.737 -0.55809,8.332 -1.06625,2.221 -3.61244,5.553 -4.24437,5.553 -0.16939,0 0.12378,-1.07 0.65256,-2.377 1.1618,-2.877 1.54834,-7.552 0.88818,-10.73 -1.54074,-7.414 -7.92521,-12.986 -17.06869,-14.896 -3.12383,-0.653 -4.67651,-0.763 -8.42685,-0.597 -7.65267,0.336 -12.39759,2.149 -16.70494,6.384 -2.98919,2.937 -4.16185,5.052 -4.43764,7.997 l -0.20087,2.153 1.12597,-1.723 c 1.14442,-1.752 2.41697,-3.049 2.39417,-2.441 0,0.183 -0.34637,1.282 -0.75354,2.441 -1.24215,3.531 -0.95441,10.217 0.6189,14.364 0.24756,0.653 0.20413,0.696 -0.29642,0.29 -0.69816,-0.567 -1.66669,-2.722 -2.23891,-4.983 -0.71662,-2.833 -1.25735,-1.955 -1.08036,1.755 0.20739,4.334 1.35616,6.835 4.46261,9.709 3.84263,3.557 8.71242,5.688 12.89815,5.646 l 2.29754,-0.02 -2.29754,-0.668 c -1.26386,-0.367 -3.13143,-1.041 -4.14882,-1.496 -1.87408,-0.84 -5.02288,-3.102 -4.72754,-3.396 0.0869,-0.09 1.44084,0.347 3.00547,0.97 4.34752,1.726 6.7721,2.065 13.58329,1.894 5.94472,-0.147 6.15102,-0.181 9.48333,-1.541 3.10754,-1.267 3.32578,-1.31 2.48972,-0.485 -0.50381,0.496 -1.92511,1.43 -3.15749,2.074 -1.23346,0.644 -2.07386,1.17 -1.86865,1.17 0.91641,0 6.45505,-2.028 8.62012,-3.156 3.28996,-1.714 3.32036,-1.717 1.81002,-0.119 -1.82305,1.929 -5.63636,4.418 -10.00234,6.529 -4.91756,2.377 -9.75912,3.374 -15.47039,3.185 -3.92949,-0.129 -4.40724,-0.232 -7.0859,-1.537 -3.81113,-1.857 -9.14564,-6.349 -12.57241,-10.588 -3.70581,-4.584 -4.15533,-4.863 -7.72977,-4.782 -5.7547,0.132 -14.29773,3.499 -19.63333,7.738 -3.6917,2.934 -5.75145,6.045 -9.03598,13.648 -3.81982,8.844 -7.89046,17.781 -10.20538,22.408 -2.45389,4.902 -4.02612,9.175 -4.02612,10.939 0,3.469 1.78613,0.681 7.89481,-12.329 2.85564,-6.083 6.48002,-13.968 8.05225,-17.524 3.89257,-8.797 4.77967,-10.477 6.65375,-12.601 4.30734,-4.883 12.69945,-9.009 19.08391,-9.383 l 3.18898,-0.187 1.59938,1.822 c 4.31277,4.917 6.44853,6.948 9.25965,8.807 8.13368,5.378 12.53224,6.426 21.12304,5.029 3.52992,-0.574 4.73841,-0.504 5.98924,0.345 0.61782,0.42 0.46255,0.667 -1.64823,2.62 -5.63419,5.217 -18.25981,14.394 -28.02761,20.373 -8.86551,5.426 -18.72561,10.033 -23.35435,10.911 -1.55703,0.295 -2.51578,0.218 -4.92516,-0.398 -4.11733,-1.051 -5.21507,-0.976 -8.27158,0.569 -3.57335,1.807 -7.07286,4.516 -10.59735,8.206 -8.22706,8.611 -11.46273,15.534 -9.06964,19.405 1.58852,2.571 5.15426,3.453 9.39429,2.324 z m 66.86538,-75.362 c -6.85028,-0.647 -12.68642,-5.737 -14.44323,-12.596 -2.37355,-9.261 2.77746,-16.686 13.18262,-19.001 8.30633,-1.848 16.62785,1.185 20.74953,7.56 1.85019,2.864 2.44738,5.44 2.21936,9.575 -0.30402,5.536 -3.03479,9.502 -8.38341,12.179 -4.23243,2.119 -8.08048,2.778 -13.32487,2.283 z m 8.76127,-4.594 c 2.05867,-0.967 6.12823,-4.274 6.12823,-4.98 0,-0.195 -0.67645,-0.01 -1.50274,0.412 -1.60807,0.82 -6.95994,2.696 -7.69286,2.696 -0.29099,0 -0.35505,-0.391 -0.18892,-1.15 0.21607,-0.985 0.14006,-1.149 -0.53421,-1.149 -0.48644,0 -1.01305,0.439 -1.38113,1.149 -0.34637,0.67 -0.90013,1.15 -1.32793,1.15 -0.99785,0 -1.23889,-0.515 -0.79046,-1.692 0.52227,-1.376 -0.14767,-1.282 -1.51251,0.213 l -1.09882,1.202 -1.63521,-0.654 c -0.89904,-0.36 -2.07495,-0.96 -2.61459,-1.331 -1.94357,-1.344 -2.07604,-1.348 -1.32141,-0.05 1.00001,1.719 4.04024,4.395 5.57881,4.909 0.70142,0.234 2.74054,0.389 4.53102,0.345 2.58744,-0.07 3.68844,-0.283 5.36273,-1.07 z m -0.57438,-7.572 c 3.06628,-1.368 6.91325,-3.615 6.4507,-3.769 -0.23344,-0.08 -2.20959,0.389 -4.39204,1.038 -7.24333,2.151 -11.02624,1.93 -17.11537,-0.998 -1.5516,-0.747 -2.89907,-1.28 -2.99353,-1.187 -0.57873,0.58 4.92081,4.222 8.0859,5.353 2.63957,0.943 7.3302,0.738 9.96434,-0.437 z m 6.86656,-8.89 c -1.66344,-1.742 -5.3888,-4.12 -6.90022,-4.403 -1.26712,-0.238 -1.3149,-0.305 -1.08254,-1.545 0.29968,-1.599 -0.13464,-1.641 -1.56571,-0.147 -0.60588,0.632 -1.39742,1.149 -1.75899,1.149 -0.54615,0 -0.62325,-0.259 -0.45278,-1.532 0.12487,-0.931 0.0543,-1.532 -0.19001,-1.532 -0.21716,0 -1.18786,0.804 -2.15639,1.786 -0.96961,0.984 -1.76224,1.587 -1.76224,1.341 0,-0.245 -0.15961,-0.446 -0.35506,-0.446 -0.36808,0 -8.07179,5.624 -8.07179,5.894 0,0.09 1.33553,-0.426 2.96856,-1.131 3.47237,-1.497 6.97949,-2.468 8.89048,-2.458 2.64934,0.01 6.56689,1.125 9.8753,2.802 1.84585,0.936 3.42894,1.633 3.51906,1.55 0.0869,-0.09 -0.34094,-0.682 -0.95767,-1.328 z m 8.05225,11.009 c 0.11835,-0.389 0.39523,-1.866 0.61456,-3.281 0.57438,-3.701 -0.0326,-7.147 -1.93163,-10.924 -0.83823,-1.671 -1.46256,-3.099 -1.38764,-3.175 0.4278,-0.428 2.57007,2.116 3.52666,4.186 0.99784,2.161 1.11185,2.807 1.10099,6.24 -0.0109,3.461 -0.11509,4.017 -1.07493,5.746 -0.58416,1.054 -0.96636,1.598 -0.84801,1.208 z m -12.23799,-23.263 c -4.07824,-0.836 -10.59518,-0.924 -14.6517,-0.198 -1.52663,0.273 -2.77638,0.441 -2.77638,0.373 0,-0.07 0.54941,-0.41 1.22152,-0.757 4.19117,-2.168 11.99694,-2.401 18.02418,-0.539 2.68409,0.829 4.21071,1.956 2.53859,1.872 -0.49947,-0.02 -2.46041,-0.363 -4.35621,-0.751 z m -142.48225,102.612 c 1.09773,-0.5 2.09666,-2.107 2.09666,-3.372 0,-1.177 -1.67972,-2.683 -2.99136,-2.683 -1.31707,0 -3.00005,1.426 -3.35619,2.844 -0.29425,1.176 0.61782,2.777 1.86865,3.281 1.13466,0.457 1.23021,0.455 2.38224,-0.08 z m 46.57948,-1.66 c 2.0641,-1.332 3.14772,-3.831 2.9349,-6.769 -0.15201,-2.098 -0.30945,-2.462 -1.57114,-3.618 -1.17266,-1.075 -1.69493,-1.286 -3.19332,-1.286 -3.91863,0 -7.03052,3.281 -7.03052,7.414 0,1.921 0.1455,2.333 1.25084,3.539 2.03152,2.217 4.87521,2.486 7.60924,0.72 z m -62.76325,-0.282 c 1.84911,-1.409 2.95879,-3.839 2.95879,-6.475 0,-4.682 -4.12602,-7.516 -8.01533,-5.505 -5.00551,2.588 -6.22486,9.72 -2.13576,12.492 1.70253,1.154 5.34971,0.894 7.1923,-0.512 z m 29.40982,0.09 c 0.73617,-0.394 1.89363,-2.258 1.89363,-3.051 0,-0.701 -1.83065,-2.3 -2.63414,-2.3 -0.41477,0 -1.28449,0.447 -1.93271,0.992 -2.65368,2.233 -0.35614,5.98 2.67322,4.359 z m -73.68199,-6.787 c 3.7069,-2.59 8.0946,-4.447 16.43675,-6.955 11.73201,-3.529 15.87106,-5.499 25.04819,-11.929 8.39645,-5.882 8.98169,-6.114 16.27931,-6.477 4.8231,-0.239 5.6711,-0.391 8.42685,-1.507 1.68624,-0.684 4.33123,-2.004 5.88066,-2.934 1.95769,-1.177 2.73729,-1.49 2.55813,-1.027 -0.93704,2.417 -2.32468,8.147 -3.47454,14.345 -1.59829,8.613 -1.95226,11.596 -1.41587,11.927 1.13899,0.703 3.12817,-5.165 4.87738,-14.393 2.87627,-15.172 6.40836,-22.321 15.47691,-31.332 6.43442,-6.395 16.212,-13.655 26.85061,-19.939 l 2.87301,-1.696 -1.50817,-0.124 c -3.31384,-0.27 -7.41597,1.636 -14.88515,6.916 -9.38018,6.631 -16.13056,12.753 -20.90914,18.961 -2.24108,2.911 -2.72534,3.313 -6.31606,5.239 -6.19772,3.325 -8.79819,4.036 -17.07412,4.674 -10.96218,0.846 -12.71682,1.467 -22.61926,8.007 -8.38125,5.534 -13.85474,8.278 -27.00479,13.537 -10.19778,4.077 -18.19465,7.921 -18.19465,8.744 0,0.112 0.84909,1.133 1.88493,2.268 1.03694,1.134 2.28669,2.903 2.77747,3.93 0.49078,1.028 1.06407,1.768 1.27472,1.645 0.21064,-0.122 1.45171,-0.969 2.75683,-1.88 z m 117.0953,-7.214 c 0.66885,-1.742 -0.28013,-3.209 -1.61349,-2.495 -0.9859,0.527 -1.30729,1.453 -0.82086,2.362 0.47667,0.892 2.1097,0.981 2.43435,0.133 z m -2.68951,-3.638 c 1.59503,-1.254 1.93272,-2.157 1.21718,-3.251 -1.20198,-1.833 -3.65804,-0.696 -3.65804,1.694 0,1.305 0.52335,2.353 1.17483,2.353 0.14006,0 0.70902,-0.357 1.26603,-0.796 z m -58.56665,-2.418 c 1.07493,-0.703 2.1173,-2.863 2.1173,-4.387 0,-2.834 -3.74165,-4.446 -6.4203,-2.765 -3.59724,2.259 -3.55707,7.046 0.0651,8.011 1.28776,0.343 2.89907,0.02 4.2346,-0.859 z m -51.11593,-5.546 c 1.47016,-1.471 1.78178,-2.866 1.00435,-4.497 -1.40176,-2.937 -4.80138,-3.585 -6.8557,-1.305 -2.45715,2.725 -0.59502,6.875 3.09343,6.893 1.32141,0.01 1.88059,-0.215 2.75792,-1.091 z m 150.85698,-6.533 c 2.26171,-1.155 4.78076,-3.83 5.96536,-6.334 2.74706,-5.806 2.12381,-13.085 -1.48754,-17.355 -5.0674,-5.991 -14.25756,-3.781 -18.28478,4.4 -2.80677,5.7 -1.42239,14.342 2.87845,17.973 3.10428,2.62 7.36819,3.133 10.92851,1.316 z m -7.80034,-1.012 c -1.81545,-0.943 -3.19441,-2.457 -4.32038,-4.748 -0.94898,-1.931 -1.04019,-2.499 -1.01956,-6.334 0.0217,-3.498 0.16613,-4.531 0.86972,-6.085 1.29427,-2.855 2.94902,-4.687 5.25199,-5.814 1.7731,-0.868 2.46475,-0.999 4.56576,-0.864 3.10755,0.197 4.85785,1.473 6.52671,4.757 1.09448,2.154 1.14877,2.486 1.14877,7.049 0,4.448 -0.076,4.923 -1.01847,6.702 -1.27147,2.39 -3.06737,4.132 -5.30085,5.141 -2.07061,0.936 -5.10649,1.024 -6.70369,0.196 z m 0.19327,-3.799 c -0.78829,-2.074 -0.90012,-6.371 -0.23345,-9.007 0.78503,-3.104 2.96748,-6.387 5.01963,-7.547 l 1.53206,-0.867 -1.58418,-0.01 c -2.49081,-0.01 -5.00659,1.885 -6.55494,4.937 -1.08253,2.132 -1.24432,2.835 -1.24106,5.362 0,2.312 0.20413,3.342 0.98373,5.015 1.39959,3.008 3.05977,4.696 2.07821,2.113 z m -98.26763,-10.299 c 3.79702,-2.038 4.43764,-6.819 1.29644,-9.676 -1.45931,-1.326 -3.23893,-2.056 -4.99683,-2.046 -5.67653,0.03 -9.08701,5.945 -5.86329,10.171 1.14769,1.506 2.15096,2.121 4.02504,2.466 1.87951,0.348 3.76662,0.03 5.53864,-0.915 z m 203.96209,-31.486 c 2.59505,-0.771 3.85457,-1.998 3.85457,-3.756 0,-2.763 -3.28235,-4.835 -7.66136,-4.835 -3.9284,0 -7.66028,2.077 -7.66028,4.262 0,3.779 5.86438,5.992 11.46707,4.329 z m -6.8633,-1.577 c -0.73291,-0.381 -1.59069,-1.158 -1.90557,-1.726 -0.5353,-0.965 -0.51249,-1.097 0.34745,-2.012 2.93925,-3.129 10.43449,-1.778 9.90571,1.784 -0.28774,1.941 -5.86438,3.247 -8.34759,1.954 z m -101.32306,-7.028 c 6.96103,-0.992 10.07291,-3.484 8.01751,-6.419 -0.80675,-1.152 -3.82526,-2.639 -6.7645,-3.331 -3.8144,-0.899 -9.86661,-0.748 -14.21739,0.356 -4.49193,1.139 -6.0533,1.926 -2.93165,1.476 3.76771,-0.542 11.82865,-0.302 14.55616,0.433 3.01851,0.814 6.12822,2.112 6.12822,2.558 0,1.014 -4.84155,2.753 -9.98062,3.584 -1.94357,0.315 -3.61352,0.651 -3.71015,0.748 -0.0977,0.1 0.48643,0.286 1.29861,0.419 0.81108,0.133 1.73401,0.297 2.04997,0.363 1.1618,0.246 2.93816,0.187 5.55384,-0.187 z m 31.74537,-15.986 c 1.88276,-1.172 5.58967,-2.571 8.75584,-3.305 3.22372,-0.748 10.03817,-1.438 11.7635,-1.19 l 1.36158,0.195 -1.34095,-0.653 c -2.19765,-1.071 -8.0566,-1.133 -11.73635,-0.124 -4.02396,1.102 -7.28134,2.754 -9.56042,4.848 -1.93489,1.777 -1.79808,1.819 0.7568,0.229 z m 16.06649,339.217 c -2.5299,-1.223 -1.96854,-4.924 1.72099,-11.322 0.75897,-1.317 1.58091,-2.395 1.8263,-2.395 0.24431,0 1.76876,0.865 3.3866,1.92 1.92619,1.257 2.84912,2.084 2.67431,2.394 -0.14767,0.261 -0.63845,0.992 -1.09123,1.624 -0.45277,0.631 -1.64497,2.482 -2.64825,4.113 -2.46584,4.001 -3.64827,4.74 -5.86872,3.666 z m -48.19406,-44.341 c -0.42237,-0.175 -2.00112,-1.758 -3.51037,-3.519 -1.50925,-1.763 -4.13579,-4.408 -5.83614,-5.88 -1.9034,-1.646 -3.29973,-3.193 -3.62981,-4.022 -0.70468,-1.761 -3.3095,-11.224 -3.28127,-11.916 0.0109,-0.304 2.84261,-1.937 6.51693,-3.759 l 6.49414,-3.223 4.68737,1.237 c 5.06632,1.336 12.64407,4.066 19.05135,6.864 4.29974,1.878 32.94191,16.031 32.94191,16.278 0,0.447 -5.49521,3.707 -6.24875,3.707 -1.506,0 -5.84917,-1.676 -13.66906,-5.276 -14.72989,-6.779 -30.18834,-11.761 -38.87904,-12.529 -1.47559,-0.131 -3.02828,-0.307 -3.45065,-0.393 -0.42346,-0.09 -1.00002,-0.01 -1.28124,0.16 -0.84474,0.522 0.24865,2.122 4.7395,6.937 5.98598,6.418 11.67445,13.831 11.67445,15.215 0,0.556 -5.02939,0.651 -6.31932,0.119 z m 75.65054,-27.742 c -0.73725,-0.288 -2.20199,-1.032 -3.25521,-1.654 l -1.91534,-1.13 -0.0109,-2.271 c -0.0109,-2.777 -0.58741,-3.921 -4.01635,-8.01 -5.26176,-6.275 -9.04467,-13.052 -11.44319,-20.5 -2.57116,-7.984 -3.08691,-11.761 -3.48105,-25.472 -0.36049,-12.552 -0.55919,-13.999 -2.42132,-17.666 -1.13032,-2.223 -2.77855,-3.766 -5.1521,-4.82 -0.89578,-0.398 -1.62869,-0.791 -1.62869,-0.875 0,-0.09 0.99133,-0.683 2.20308,-1.333 10.47791,-5.622 23.90919,-19.779 30.07107,-31.696 0.68296,-1.322 1.3529,-2.405 1.48645,-2.406 0.13464,0 0.36266,0.818 0.50815,1.819 0.1455,1 0.97939,4.922 1.85237,8.713 1.5212,6.605 1.58634,7.153 1.56028,13.024 -0.0326,6.263 -0.38545,8.734 -2.01957,13.965 -0.42563,1.36 -0.70577,2.54 -0.62325,2.623 0.28448,0.284 2.02718,-3.571 3.08257,-6.82 1.07059,-3.297 1.71556,-4.548 1.71556,-3.326 0,1.526 2.13792,5.7 5.50932,10.756 3.94251,5.915 5.76339,9.321 7.79383,14.578 5.35839,13.873 8.07939,32.761 6.46807,44.898 -0.33985,2.564 -0.6189,5.258 -0.6189,5.987 0,1.231 -0.24105,1.496 -3.44305,3.765 -4.0207,2.848 -9.27052,5.934 -12.26188,7.205 -2.60699,1.108 -7.89589,1.451 -9.9589,0.646 z m 4.09019,-1.914 c 0.33768,-0.659 2.02392,-2.663 3.74599,-4.455 1.72315,-1.79 3.68193,-3.971 4.35403,-4.846 1.80676,-2.352 3.46586,-6.166 4.15642,-9.551 0.56136,-2.752 0.56027,-3.302 -0.0217,-6.827 -0.77092,-4.699 -1.38982,-5.615 -1.38982,-2.059 0,4.628 -2.05106,12.219 -4.04893,14.986 -0.56135,0.777 -0.57872,0.71 -0.28556,-1.087 0.17156,-1.053 0.29425,-4.415 0.27253,-7.469 -0.0651,-8.924 -1.85453,-16.463 -5.75362,-24.228 -0.9251,-1.843 -1.83065,-3.351 -2.01089,-3.351 -0.18024,0 0.076,1.542 0.56244,3.428 1.82522,7.026 3.49843,22.913 3.04674,28.926 -0.38871,5.181 -2.18679,12.192 -4.10756,16.018 -0.39957,0.798 -0.62867,1.609 -0.50924,1.803 0.37135,0.6 1.34096,-0.03 1.98592,-1.288 z m 31.34145,-264.356 c -0.21065,-0.08 -1.34856,-0.327 -2.5299,-0.56 l -2.14662,-0.422 -0.88166,-4.202 c -0.48535,-2.311 -0.79263,-4.291 -0.68297,-4.401 0.10967,-0.109 1.24758,0.591 2.5299,1.554 2.40721,1.81 3.94687,4.236 4.43004,6.983 0.21173,1.2 0.11184,1.346 -0.71879,1.048 z m -15.32164,-2.703 c -12.39326,-2.757 -16.72775,-3.378 -23.94068,-3.427 l -6.70261,-0.04 -3.898,-1.89 -3.89691,-1.89 2.13467,-1.722 c 1.55594,-1.257 2.55921,-2.513 3.70581,-4.644 1.91969,-3.571 2.24651,-3.967 4.2346,-5.132 2.82089,-1.653 6.54517,-2.228 14.38243,-2.22 12.04689,0.01 17.94709,1.744 20.11977,5.9 0.41368,0.792 0.43214,1.488 0.0869,3.478 -0.42997,2.507 -0.34528,3.171 1.52988,12.1 0.15636,0.743 0.0326,0.855 -0.91641,0.816 -0.6037,-0.02 -3.6841,-0.621 -6.84376,-1.323 z m -2.60374,-11.728 c 1.28015,-1.202 1.21501,-3.438 -0.12921,-4.495 -3.41265,-2.684 -7.3986,1.582 -4.33775,4.643 0.97288,0.973 1.36268,1.125 2.37572,0.921 0.66559,-0.133 1.60698,-0.614 2.09124,-1.069 z m -7.38123,-1.172 c -1.08145,-3.474 -1.71012,-3.907 -5.23678,-3.615 -5.88718,0.487 -7.53759,1.838 -2.66346,2.179 2.33989,0.164 2.89365,0.345 3.7916,1.244 0.8252,0.826 1.41153,1.055 2.71557,1.055 1.54726,0 1.64389,-0.07 1.39307,-0.863 z" id="path85"/></g></svg>